<svg preserveAspectRatio="none" width="100%" height="100%" overflow="visible" style="display: block;" viewBox="0 0 20.0005 21.9987" fill="none" xmlns="http://www.w3.org/2000/svg">
<path id="Shape" d="M18.5005 14.1712V14.3669C18.5005 15.2416 18.0434 16.0527 17.2951 16.5056L11.2951 20.1374C10.4993 20.6191 9.5018 20.6191 8.70597 20.1374L5.32649 18.092C5.72119 17.9783 6.10417 17.8109 6.46439 17.5898L10.5514 15.0812L12.0719 14.1608C13.2691 13.4361 14.0006 12.1384 14.0006 10.7389V10.4959L17.6808 12.7218C18.1881 13.0286 18.498 13.5784 18.498 14.1712H18.5005ZM13.1802 8.24874L12.0702 7.57735C10.7974 6.80747 9.20254 6.80747 7.92975 7.57735L7.5 7.83729V3.72488C7.5 3.02469 7.8649 2.3751 8.46287 2.01081L8.79032 1.81212C9.57094 1.3803 10.5262 1.39654 11.2939 1.86088L17.2938 5.4901C18.0425 5.94294 18.4999 6.75423 18.4999 7.62918V11.4647C18.4857 11.4558 18.4715 11.447 18.4571 11.4383L13.1811 8.2472L13.1802 8.24874ZM7.92868 14.1621L8.55934 14.5438L5.67972 16.3114C4.69895 16.9134 3.46838 16.9262 2.47681 16.3494C1.8651 15.8795 1.5 15.1486 1.5 14.367V7.62907C1.5 6.75413 1.95743 5.94284 2.70609 5.49L6.00765 3.49297C6.00257 3.56985 6 3.64719 6 3.72488V10.7402C6 12.1397 6.73143 13.4374 7.92868 14.1621ZM0 14.367C0 15.6487 0.613523 16.8451 1.63652 17.5941L1.64143 17.5976C1.7339 17.6651 1.82969 17.729 1.92868 17.7889L7.92923 21.4206C9.20255 22.1914 10.7985 22.1914 12.0718 21.4206L18.0718 17.7888C19.2691 17.0641 20.0005 15.7664 20.0005 14.3669V12.7487L19.9999 12.7479V7.62918C19.9999 6.22924 19.268 4.93118 18.0702 4.20663L12.0702 0.577407C10.8368 -0.168619 9.30103 -0.19173 8.04893 0.508074L7.92973 0.577306L1.92975 4.20653C0.731892 4.93108 0 6.22914 0 7.62907V14.367ZM12.5006 9.5907V10.7389C12.5006 11.6136 12.0434 12.4246 11.2951 12.8776L9.9992 13.662L8.70542 12.8789C7.95714 12.4259 7.5 11.6149 7.5 10.7402V9.59034L8.70608 8.86082C9.50158 8.37965 10.4984 8.37965 11.2939 8.86082L12.5006 9.5907Z" fill="var(--fill-0, #242424)"/>
</svg>
