<svg preserveAspectRatio="none" width="100%" height="100%" overflow="visible" style="display: block;" viewBox="0 0 11.2513 11.4303" fill="none" xmlns="http://www.w3.org/2000/svg">
<g id="Shape">
<path d="M0 11.4303H6.56244C8.43743 11.4303 9.56242 9.03363 10.3124 6.63696C11.201 3.79751 12.3636 0 8.99992 0H6.13871C5.30672 0 4.57478 0.546259 4.33896 1.34413C3.84553 3.01355 2.98532 5.91067 2.3092 8.11769C1.96456 9.24268 1.67748 10.2088 1.23691 10.8105C0.989903 11.1478 0.57823 11.4303 0 11.4303Z" fill="url(#paint0_radial_12089_80518)"/>
<path d="M0 11.4303H6.56244C8.43743 11.4303 9.56242 9.03363 10.3124 6.63696C11.201 3.79751 12.3636 0 8.99992 0H6.13871C5.30672 0 4.57478 0.546259 4.33896 1.34413C3.84553 3.01355 2.98532 5.91067 2.3092 8.11769C1.96456 9.24268 1.67748 10.2088 1.23691 10.8105C0.989903 11.1478 0.57823 11.4303 0 11.4303Z" fill="url(#paint1_linear_12089_80518)"/>
</g>
<defs>
<radialGradient id="paint0_radial_12089_80518" cx="0" cy="0" r="1" gradientTransform="matrix(-5.18438 14.3365 -17.6444 -6.32742 9.33703 -1.11911)" gradientUnits="userSpaceOnUse">
<stop offset="0.0661714" stop-color="#8C48FF"/>
<stop offset="0.5" stop-color="#F2598A"/>
<stop offset="0.895833" stop-color="#FFB152"/>
</radialGradient>
<linearGradient id="paint1_linear_12089_80518" x1="9.85547" y1="-0.697846" x2="9.84922" y2="2.41537" gradientUnits="userSpaceOnUse">
<stop offset="0.0581535" stop-color="#F8ADFA"/>
<stop offset="0.708063" stop-color="#A86EDD" stop-opacity="0"/>
</linearGradient>
</defs>
</svg>
