<svg preserveAspectRatio="none" width="100%" height="100%" overflow="visible" style="display: block;" viewBox="0 0 16.2508 17.4543" fill="none" xmlns="http://www.w3.org/2000/svg">
<g id="Shape">
<path d="M16.2508 0H6.7723C4.06417 0 2.43928 3.65978 1.35603 7.31957C0.0726605 11.6555 -1.60666 17.4543 3.25172 17.4543H7.33856C8.56359 17.4543 9.63756 16.6404 9.96735 15.4606C10.6772 12.9211 11.9314 8.45468 12.9155 5.05845C13.4132 3.34057 13.8279 1.86521 14.4642 0.946447C14.821 0.431355 15.4156 0 16.2508 0Z" fill="url(#paint0_linear_12089_80733)"/>
<path d="M16.2508 0H6.7723C4.06417 0 2.43928 3.65978 1.35603 7.31957C0.0726605 11.6555 -1.60666 17.4543 3.25172 17.4543H7.33856C8.56359 17.4543 9.63756 16.6404 9.96735 15.4606C10.6772 12.9211 11.9314 8.45468 12.9155 5.05845C13.4132 3.34057 13.8279 1.86521 14.4642 0.946447C14.821 0.431355 15.4156 0 16.2508 0Z" fill="url(#paint1_linear_12089_80733)"/>
</g>
<defs>
<linearGradient id="paint0_linear_12089_80733" x1="6.20499" y1="2.11493" x2="7.6185" y2="18.1075" gradientUnits="userSpaceOnUse">
<stop offset="0.156162" stop-color="#0D91E1"/>
<stop offset="0.487484" stop-color="#52B471"/>
<stop offset="0.652394" stop-color="#98BD42"/>
<stop offset="0.937361" stop-color="#FFC800"/>
</linearGradient>
<linearGradient id="paint1_linear_12089_80733" x1="7.3869" y1="-1.14692e-08" x2="8.15896" y2="17.4529" gradientUnits="userSpaceOnUse">
<stop stop-color="#3DCBFF"/>
<stop offset="0.246674" stop-color="#0588F7" stop-opacity="0"/>
</linearGradient>
</defs>
</svg>
