<svg preserveAspectRatio="none" width="100%" height="100%" overflow="visible" style="display: block;" viewBox="0 0 27.9999 30.7982" fill="none" xmlns="http://www.w3.org/2000/svg">
<path id="Shape" d="M2.70015 24.9044L11.0998 29.9889C12.8824 31.0679 15.1168 31.0679 16.8994 29.9889L25.2994 24.9043C26.9373 23.9129 27.9689 22.0869 27.9992 20.1996L27.9998 20.151L27.9999 20.1141V10.6809C27.9999 8.72101 26.9753 6.90371 25.2983 5.88933L16.8983 0.808377C15.1716 -0.236069 13.0214 -0.268424 11.2685 0.71131C9.34047 1.86852 7.40704 3.03953 5.48139 4.20615C4.55499 4.76739 3.62858 5.32864 2.70165 5.88896C1.02465 6.90334 0 8.72064 0 10.6806V20.1137C0 22.073 1.024 23.8898 2.70015 24.9044ZM12.1024 20.4333L7.27266 23.4701C6.35907 24.0445 5.20125 24.0609 4.27176 23.5126L3.73583 23.1935C2.65831 22.5412 2 21.3733 2 20.1137V10.6806C2 9.4208 2.6585 8.2527 3.73629 7.60054C4.66639 7.0383 5.59468 6.47592 6.52151 5.91441L6.52247 5.91384C7.1718 5.52045 7.82083 5.12724 8.46966 4.73459C8.42263 5.02789 8.39844 5.32693 8.39844 5.62933V12.8877H8.40039V15.0362C8.40039 16.9955 9.42439 18.8123 11.1005 19.8269L12.1024 20.4333ZM25.9999 10.6809V16.0148C25.7887 15.8444 25.5632 15.6889 25.3244 15.5501L18.8071 11.7628L16.8987 10.6084C15.1168 9.53056 12.884 9.53056 11.102 10.6084L10.3984 11.034V5.62933C10.3984 4.38279 11.0348 3.22467 12.082 2.55563L12.2683 2.44384C13.3905 1.82778 14.7611 1.85304 15.8632 2.51967L24.2631 7.60062C25.3412 8.25272 25.9999 9.42098 25.9999 10.6809ZM17.6 15.0344C17.6 16.2939 16.9417 17.4619 15.8642 18.1141L13.9968 19.2422L12.1362 18.1159C11.0587 17.4637 10.4004 16.2958 10.4004 15.0362V13.3702L12.1372 12.3197C13.2827 11.6268 14.7181 11.6268 15.8636 12.3197L17.6 13.37V15.0344ZM24.2637 23.1934L15.8638 28.2779C14.7178 28.9716 13.2814 28.9716 12.1354 28.2779L7.61092 25.5391C7.86061 25.4354 8.10364 25.3101 8.33723 25.1632L14.9502 21.0052L16.8999 19.8251C18.576 18.8105 19.6 16.9937 19.6 15.0344V14.5367L24.3195 17.2793C25.3464 17.8761 25.9834 18.9677 25.9997 20.1531C25.9855 21.3623 25.3125 22.5585 24.2637 23.1934Z" fill="var(--fill-0, #242424)"/>
</svg>
