<svg preserveAspectRatio="none" width="100%" height="100%" overflow="visible" style="display: block;" viewBox="0 0 23.9948 26.389" fill="none" xmlns="http://www.w3.org/2000/svg">
<path id="Shape" d="M23.9831 17.4405C23.9145 19.0398 23.0511 20.5054 21.6739 21.339L14.4765 25.6956C12.9491 26.6202 11.0346 26.6202 9.50712 25.6956L2.51492 21.461L2.31359 21.3391C0.877402 20.4698 0 18.9131 0 17.2343V9.15167C0 7.47234 0.877959 5.91522 2.31488 5.04607L9.51231 0.692551C9.56374 0.66144 9.61609 0.631958 9.66833 0.602219C11.1679 -0.229827 13.0039 -0.199686 14.4791 0.692643L21.6766 5.04616C23.1135 5.91531 23.9914 7.47244 23.9914 9.15176V16.9039C24.0002 17.0843 23.99 17.2571 23.9831 17.4405ZM22.4914 9.15176C22.4914 7.99742 21.8879 6.92708 20.9002 6.32963L13.7028 1.97612C12.6921 1.36476 11.4349 1.34216 10.4061 1.90829L9.92156 2.20116C9.15878 2.68896 8.69727 3.53193 8.69727 4.43734V9.58248L9.51215 9.08958C11.039 8.16606 12.9521 8.16606 14.479 9.08958L16.7899 10.4874V10.5002L22.0992 13.7246C22.2363 13.8079 22.3672 13.8988 22.4914 13.9965V9.15176ZM16.7899 12.8821C16.7899 14.5609 15.9125 16.1176 14.4764 16.9869L12.4606 18.207L7.12156 21.5931C6.85776 21.7604 6.57947 21.8948 6.29234 21.9963L10.2839 24.4124C11.3338 25.0479 12.6498 25.0479 13.6998 24.4124L20.8972 20.0558C21.8653 19.4698 22.464 18.4294 22.4868 17.3013L22.4914 16.9448C22.4423 16.1494 22.0072 15.4237 21.3206 15.0067L16.7899 12.2552V12.8821ZM11.9848 16.7326L11.9958 16.7256L12.0001 16.7324L13.6996 15.7037C14.6868 15.1061 15.2899 14.0361 15.2899 12.8821V11.3332L13.7026 10.3731C12.6531 9.73824 11.338 9.73824 10.2885 10.3731L8.69727 11.3355V12.8837C8.69727 14.0377 9.30037 15.1077 10.2876 15.7053L11.9848 16.7326ZM10.5702 17.6297L9.51086 16.9885C8.07467 16.1192 7.19727 14.5625 7.19727 12.8837V4.43734C7.19727 4.22823 7.213 4.02124 7.24365 3.81786L3.09122 6.32954C2.10349 6.92699 1.5 7.99733 1.5 9.15167V17.2343C1.5 18.3882 2.10311 19.4583 3.09033 20.0559L3.6041 20.3691C4.44458 20.8664 5.49347 20.8494 6.31819 20.3264L10.5702 17.6297Z" fill="var(--fill-0, #242424)"/>
</svg>
