<svg preserveAspectRatio="none" width="100%" height="100%" overflow="visible" style="display: block;" viewBox="0 0 17.9321 13.4999" fill="none" xmlns="http://www.w3.org/2000/svg">
<g id="Shape">
<path d="M11.9322 0V2.24013C11.9322 3.63961 11.2008 4.93733 10.0035 5.66202L4.00353 9.29382C2.77616 10.0367 1.24901 10.0636 0 9.37425L5.86087 12.9218C7.1342 13.6926 8.73017 13.6926 10.0035 12.9218L16.0035 9.29004C17.2007 8.56535 17.9321 7.26764 17.9321 5.86815V4.24994L17.4321 3.49996L11.9322 0Z" fill="url(#paint0_radial_12089_80945)"/>
<path d="M11.9322 0V2.24013C11.9322 3.63961 11.2008 4.93733 10.0035 5.66202L4.00353 9.29382C2.77616 10.0367 1.24901 10.0636 0 9.37425L5.86087 12.9218C7.1342 13.6926 8.73017 13.6926 10.0035 12.9218L16.0035 9.29004C17.2007 8.56535 17.9321 7.26764 17.9321 5.86815V4.24994L17.4321 3.49996L11.9322 0Z" fill="url(#paint1_linear_12089_80945)"/>
</g>
<defs>
<radialGradient id="paint0_radial_12089_80945" cx="0" cy="0" r="1" gradientTransform="matrix(15.0512 -1.0729 0.702193 9.63263 2.54985 7.82281)" gradientUnits="userSpaceOnUse">
<stop offset="0.140029" stop-color="#FBFF47"/>
<stop offset="0.952721" stop-color="#54B228"/>
</radialGradient>
<linearGradient id="paint1_linear_12089_80945" x1="15.3001" y1="2.72883" x2="14.416" y2="4.13396" gradientUnits="userSpaceOnUse">
<stop offset="0.9999" stop-color="#27770B"/>
<stop offset="1" stop-color="#8C66BA" stop-opacity="0"/>
</linearGradient>
</defs>
</svg>
