<svg preserveAspectRatio="none" width="100%" height="100%" overflow="visible" style="display: block;" viewBox="0 0 27.9999 30.7982" fill="none" xmlns="http://www.w3.org/2000/svg">
<path id="Shape" d="M8.50664 2.37765L2.70165 5.88896C1.02465 6.90334 0 8.72064 0 10.6806V20.1137C0 22.0226 0.97201 23.7963 2.57214 24.8246C3.45424 25.2341 4.49135 25.1758 5.32705 24.6539L12.094 20.4285L11.1001 19.8269C9.42397 18.8123 8.39997 16.9955 8.39997 15.0362V13.7368H8.39844V3.47845C8.39844 3.10489 8.43535 2.73646 8.50664 2.37765ZM14.8422 21.0703L6.38635 26.3504C6.16109 26.491 5.92717 26.6118 5.68703 26.7125L11.0998 29.9889C12.8824 31.0679 15.1168 31.0679 16.8994 29.9889L25.2994 24.9043C26.774 24.0118 27.7438 22.4983 27.9558 20.8132C27.7944 19.8263 27.2003 18.9505 26.3194 18.4388L19.5996 14.5359V15.0344C19.5996 16.9937 18.5756 18.8105 16.8994 19.8251L14.8422 21.0703ZM27.9999 10.6809V17.1743C27.7886 17.0038 27.5629 16.8482 27.3239 16.7094L18.7968 11.7568L16.8983 10.6084C15.1164 9.53055 12.8835 9.53055 11.1016 10.6084L10.3984 11.0337V3.47845C10.3984 2.204 11.0636 1.02197 12.153 0.360551L12.3247 0.256266C13.8377 -0.21801 15.5057 -0.0339733 16.8983 0.808377L25.2983 5.88933C26.9753 6.90371 27.9999 8.72101 27.9999 10.6809Z" fill="var(--fill-0, #242424)"/>
</svg>
