<svg preserveAspectRatio="none" width="100%" height="100%" overflow="visible" style="display: block;" viewBox="0 0 18.0029 16.0006" fill="none" xmlns="http://www.w3.org/2000/svg">
<path id="Shape" d="M4.9285 0H11.1407C12.1942 0 13.1217 0.693969 13.4191 1.7046L13.8882 3.29901C14.049 3.84546 14.5281 4.232 15.0875 4.28068H15.3766C16.2642 4.28068 16.9494 4.53232 17.4038 5.04832C17.8464 5.55084 17.9927 6.21838 18.0024 6.88707C18.0215 8.20801 17.5048 9.84896 17.0931 11.1554C16.7348 12.2924 16.2745 13.4729 15.6567 14.3777C15.0414 15.2788 14.2014 16.0006 13.0744 16.0006H6.8763L6.86841 16.0005H6.86209C5.80863 16.0005 4.88105 15.3066 4.58369 14.296L4.11456 12.7015C3.95384 12.1553 3.47515 11.7689 2.91602 11.7199H2.62634C1.73873 11.7199 1.05355 11.4683 0.599125 10.9523C0.156553 10.4498 0.0101824 9.78223 0.000514251 9.11354C-0.0185841 7.7926 0.498115 6.15165 0.909843 4.84517C1.26813 3.70826 1.72841 2.52772 2.34624 1.62288C2.96152 0.721782 3.80154 0 4.9285 0ZM1.8636 5.14574C1.43611 6.50224 0.984136 7.97352 1.00041 9.09908C1.00843 9.65363 1.13075 10.0429 1.34958 10.2914C1.55655 10.5264 1.92547 10.7199 2.62634 10.7199H5.25359C5.86286 10.7199 6.39961 10.3195 6.57359 9.7352C7.04318 8.15798 7.8394 5.4963 8.46784 3.45934L8.50083 3.35233C8.64998 2.86841 8.7943 2.40016 8.94972 1.98475C9.08212 1.63087 9.23032 1.29335 9.41101 1H4.9285C4.28458 1 3.70788 1.40208 3.17208 2.18678C2.63884 2.96774 2.21367 4.03493 1.8636 5.14574ZM4.73591 11.7199C4.88339 11.9288 4.99876 12.1639 5.07389 12.4193L5.54302 14.0137C5.71518 14.5988 6.25219 15.0005 6.86209 15.0005H6.88825C7.24721 14.9969 7.49101 14.8275 7.64213 14.6226C7.80926 14.3959 7.96182 14.0792 8.1166 13.6654C8.26121 13.2789 8.39713 12.8381 8.54926 12.3446L8.57952 12.2465C8.64454 12.0357 8.71135 11.8183 8.77943 11.596C8.54447 11.6733 8.29471 11.7147 8.03758 11.7147H5.4122C5.3597 11.7182 5.30681 11.7199 5.25359 11.7199H4.73591ZM7.19497 10.7147H8.03758C8.59062 10.7147 9.08465 10.3842 9.30002 9.88461C9.73736 8.43867 10.1707 6.98844 10.4709 5.98005C10.5464 5.72668 10.6614 5.4933 10.808 5.28588H9.96522C9.41257 5.28588 8.91885 5.61592 8.70324 6.11487C8.26579 7.56118 7.83232 9.0119 7.53201 10.0206C7.45657 10.2739 7.34158 10.5073 7.19497 10.7147ZM9.22352 4.40449C9.45844 4.32723 9.70814 4.28588 9.96522 4.28588H12.5916C12.6438 4.28243 12.6964 4.28068 12.7493 4.28068H13.2669C13.1194 4.07183 13.0041 3.83666 12.9289 3.58128L12.4598 1.98687C12.2876 1.40177 11.7506 1 11.1407 1H11.1259C10.7608 1.00023 10.5135 1.17099 10.3608 1.37803C10.1937 1.60467 10.0411 1.92146 9.88631 2.33517C9.74171 2.72167 9.60579 3.16256 9.45366 3.65601L9.4234 3.75415C9.3584 3.96483 9.29159 4.18225 9.22352 4.40449ZM16.1393 10.8549C16.5668 9.49837 17.0188 8.02709 17.0025 6.90153C16.9945 6.34698 16.8722 5.95771 16.6533 5.70923C16.4464 5.47423 16.0774 5.28068 15.3766 5.28068H12.7493C12.1401 5.28068 11.6033 5.68108 11.4293 6.26541C10.9597 7.84263 10.1635 10.5043 9.53508 12.5413L9.50209 12.6483C9.35294 13.1322 9.20862 13.6005 9.0532 14.0159C8.9208 14.3697 8.7726 14.7073 8.59191 15.0006H13.0744C13.7183 15.0006 14.295 14.5985 14.8308 13.8138C15.3641 13.0329 15.7893 11.9657 16.1393 10.8549Z" fill="var(--fill-0, #242424)"/>
</svg>
