<svg preserveAspectRatio="none" width="100%" height="100%" overflow="visible" style="display: block;" viewBox="0 0 39.9999 43.9975" fill="none" xmlns="http://www.w3.org/2000/svg">
<path id="Shape" d="M39.9999 28.7356V15.2591C39.9999 12.4591 38.5361 9.86286 36.1404 8.41369L24.1404 1.15487C21.6737 -0.337256 18.6021 -0.38348 16.0979 1.0162C16.0979 1.0162 15.9357 1.10638 15.8595 1.15251C11.8641 3.56932 7.85775 5.99278 3.8595 8.41133C1.46378 9.86051 0 12.4568 0 15.2568V28.7333C0 31.5324 1.46285 34.128 3.85735 35.5774C7.84128 37.989 11.8615 40.423 15.8565 42.8413C18.4032 44.3829 21.5951 44.3829 24.1417 42.8413L36.1417 35.5773C38.4398 34.1862 39.8797 31.7395 39.992 29.0703C39.9966 28.9588 39.9988 28.8472 39.9999 28.7356ZM10.581 36.7255C11.3618 36.5058 12.1155 36.1641 12.813 35.7013L21.7878 29.7459L24.1418 28.3209C26.5363 26.8714 27.9992 24.2759 27.9992 21.4768V20.3964L35.3027 24.7788C36.6641 25.5957 37.4971 27.067 37.4971 28.6547H37.4999C37.4999 28.7384 37.4992 28.822 37.4964 28.9056C37.4384 30.7636 36.444 32.472 34.8471 33.4386L22.8471 40.7026C21.0963 41.7624 18.9019 41.7624 17.1511 40.7026L10.581 36.7255ZM5.89411 33.8884L5.15197 33.4387C3.50576 32.4422 2.5 30.6578 2.5 28.7333V15.2568C2.5 13.3317 3.5064 11.5467 5.15345 10.5504L12.0563 6.37484C12.0094 6.69835 11.9854 7.02734 11.9854 7.35967V18.4916H12V21.4794C12 24.2785 13.4629 26.8741 15.8574 28.3235L17.7151 29.4481L11.4307 33.6182C9.7704 34.7199 7.64446 34.8186 5.89411 33.8884ZM37.4999 15.2591V23.2856C37.2166 23.047 36.9124 22.8292 36.589 22.6351L26.4293 16.5388L24.1405 15.1555C21.5949 13.6157 18.4051 13.6157 15.8595 15.1555L14.4854 15.9867V7.35967C14.4854 5.87589 15.2403 4.49693 16.4838 3.69668C16.7608 3.52912 17.0352 3.35692 17.3176 3.19846C19.0389 2.23637 21.1507 2.26819 22.8465 3.29397L34.8465 10.5528C36.4935 11.5491 37.4999 13.334 37.4999 15.2591ZM14.5 18.8996L17.1534 17.2946C18.9035 16.236 21.0964 16.236 22.8465 17.2946L25.4992 18.8992V21.4768C25.4992 23.4012 24.4934 25.1857 22.8472 26.1822L20.5105 27.5967L20.4487 27.6341L19.9974 27.9073L17.152 26.1848C15.5058 25.1883 14.5 23.4039 14.5 21.4794V18.8996Z" fill="var(--fill-0, #242424)"/>
</svg>
