<svg preserveAspectRatio="none" width="100%" height="100%" overflow="visible" style="display: block;" viewBox="0 0 16.2508 17.4543" fill="none" xmlns="http://www.w3.org/2000/svg">
<g id="Shape">
<path d="M16.2508 0H6.7723C4.06417 0 2.43928 3.65978 1.35603 7.31957C0.0726605 11.6555 -1.60666 17.4543 3.25172 17.4543H7.33856C8.56359 17.4543 9.63756 16.6404 9.96735 15.4606C10.6772 12.9211 11.9314 8.45468 12.9155 5.05845C13.4132 3.34057 13.8279 1.86521 14.4642 0.946447C14.821 0.431355 15.4156 0 16.2508 0Z" fill="url(#paint0_linear_12089_80649)"/>
<path d="M16.2508 0H6.7723C4.06417 0 2.43928 3.65978 1.35603 7.31957C0.0726605 11.6555 -1.60666 17.4543 3.25172 17.4543H7.33856C8.56359 17.4543 9.63756 16.6404 9.96735 15.4606C10.6772 12.9211 11.9314 8.45468 12.9155 5.05845C13.4132 3.34057 13.8279 1.86521 14.4642 0.946447C14.821 0.431355 15.4156 0 16.2508 0Z" fill="url(#paint1_linear_12089_80649)"/>
</g>
<defs>
<linearGradient id="paint0_linear_12089_80649" x1="6.35607" y1="-4.87387" x2="11.0755" y2="18.169" gradientUnits="userSpaceOnUse">
<stop offset="0.253977" stop-color="#EA348E"/>
<stop offset="0.55966" stop-color="#FD6544"/>
<stop offset="0.844539" stop-color="#FFB152"/>
</linearGradient>
<linearGradient id="paint1_linear_12089_80649" x1="8.06138" y1="-0.681102" x2="8.09139" y2="17.4544" gradientUnits="userSpaceOnUse">
<stop stop-color="#F99ACD"/>
<stop offset="0.246674" stop-color="#F44C6D" stop-opacity="0"/>
</linearGradient>
</defs>
</svg>
