<svg preserveAspectRatio="none" width="100%" height="100%" overflow="visible" style="display: block;" viewBox="0 0 16 18.0029" fill="none" xmlns="http://www.w3.org/2000/svg">
<path id="Shape" d="M16 12.086C16 13.1397 15.4471 14.1163 14.5435 14.6584L9.80074 17.5041C8.69235 18.1691 7.30765 18.1691 6.19927 17.5041L1.91115 14.9312C1.87347 14.9099 1.8362 14.8876 1.7994 14.8642L1.45651 14.6584C0.552897 14.1163 0 13.1397 0 12.086V5.9169C0 4.86312 0.552896 3.8866 1.45651 3.34443L6.11119 0.551618C6.21999 0.478963 6.33534 0.414304 6.4566 0.358634C6.56001 0.307801 6.66532 0.262372 6.77214 0.222347L6.80279 0.209191L6.80347 0.210777C7.78374 -0.1459 8.88628 -0.0499002 9.80074 0.498775L14.5435 3.34443C15.4471 3.8866 16 4.86312 16 5.9169V12.086ZM7.14273 1.1515L6.90837 1.2521L6.88557 1.2621C6.8274 1.29109 6.77008 1.32248 6.71376 1.35627L6.64966 1.39473C6.24806 1.67099 6 2.13073 6 2.63049V6.77579L6.71376 6.34753C7.50547 5.87251 8.49453 5.87251 9.28624 6.34753L14.7862 9.64753C14.8604 9.69201 14.9317 9.74001 15 9.79123V5.9169C15 5.21438 14.6314 4.56336 14.029 4.20192L9.28624 1.35627C8.63225 0.963871 7.84358 0.895616 7.14273 1.1515ZM6 7.94198V9.36904C6 9.89593 6.27645 10.3842 6.72825 10.6553L8.04901 11.4477L9.29647 10.6656C9.73403 10.3913 9.99969 9.9112 9.99969 9.39476V7.94179L8.77174 7.20502C8.29672 6.92001 7.70328 6.92001 7.22826 7.20502L6 7.94198ZM10.9997 8.54179V9.39476C10.9997 10.2555 10.5569 11.0557 9.82765 11.5129L4.46876 14.8726C4.34541 14.95 4.21701 15.0156 4.0851 15.0694L6.71376 16.6466C7.50547 17.1216 8.49453 17.1216 9.28624 16.6466L14.029 13.8009C14.6314 13.4395 15 12.7885 15 12.086V11.7913C15 11.2644 14.7236 10.7761 14.2717 10.505L10.9997 8.54179ZM1.7348 13.635L2.32611 14.014L2.41287 14.0661C2.88825 14.33 3.47267 14.3169 3.93757 14.0254L7.09853 12.0436L6.21376 11.5128C5.46075 11.061 5 10.2472 5 9.36904V2.63049C5 2.54515 5.00434 2.4605 5.01285 2.37681L1.97101 4.20192C1.3686 4.56337 1 5.21438 1 5.9169V12.086C1 12.6913 1.27368 13.2584 1.7348 13.635Z" fill="var(--fill-0, #242424)"/>
</svg>
