<svg preserveAspectRatio="none" width="100%" height="100%" overflow="visible" style="display: block;" viewBox="0 0 13.7507 14.4401" fill="none" xmlns="http://www.w3.org/2000/svg">
<g id="Shape">
<path d="M0 14.4401H8.02025C10.3117 14.4401 11.6866 11.4123 12.6032 8.38457C13.6892 4.79746 15.1101 0 10.9992 0H7.53584C6.50111 0 5.59272 0.684165 5.30827 1.67903C4.70613 3.785 3.65098 7.45865 2.82217 10.2552C2.40097 11.6764 2.05013 12.897 1.51168 13.6571C1.2098 14.0832 0.706679 14.4401 0 14.4401Z" fill="url(#paint0_radial_12089_80633)"/>
<path d="M0 14.4401H8.02025C10.3117 14.4401 11.6866 11.4123 12.6032 8.38457C13.6892 4.79746 15.1101 0 10.9992 0H7.53584C6.50111 0 5.59272 0.684165 5.30827 1.67903C4.70613 3.785 3.65098 7.45865 2.82217 10.2552C2.40097 11.6764 2.05013 12.897 1.51168 13.6571C1.2098 14.0832 0.706679 14.4401 0 14.4401Z" fill="url(#paint1_linear_12089_80633)"/>
</g>
<defs>
<radialGradient id="paint0_radial_12089_80633" cx="0" cy="0" r="1" gradientTransform="matrix(-7.31363 15.2723 -18.1778 -9.21161 11.5508 -0.832246)" gradientUnits="userSpaceOnUse">
<stop stop-color="#6462E4"/>
<stop offset="0.554591" stop-color="#6462E4"/>
<stop offset="1" stop-color="#A071EE"/>
</radialGradient>
<linearGradient id="paint1_linear_12089_80633" x1="10.1623" y1="-0.692705" x2="9.23979" y2="4.14584" gradientUnits="userSpaceOnUse">
<stop stop-color="#B791F7"/>
<stop offset="1" stop-color="#A071EE" stop-opacity="0"/>
</linearGradient>
</defs>
</svg>
