<svg preserveAspectRatio="none" width="100%" height="100%" overflow="visible" style="display: block;" viewBox="0 0 16.2271 17" fill="none" xmlns="http://www.w3.org/2000/svg">
<path id="Shape" d="M0.0242728 5.88266C0.393563 4.74053 1.00191 3.69213 1.80461 2.80364C1.94035 2.65339 2.15331 2.59984 2.34397 2.66802L4.26225 3.35392C4.78233 3.53977 5.35459 3.26883 5.54045 2.74875C5.55872 2.69762 5.5728 2.64507 5.58253 2.59173L5.94799 0.585725C5.98432 0.386273 6.1375 0.228505 6.3358 0.186297C6.91599 0.0628015 7.51086 0 8.11354 0C8.71584 0 9.31037 0.0627251 9.89022 0.186072C10.0885 0.228241 10.2416 0.38591 10.2781 0.585286L10.6445 2.59165C10.7436 3.13497 11.2644 3.4951 11.8077 3.39601C11.8611 3.38627 11.9137 3.37219 11.9647 3.35395L13.8831 2.66802C14.0738 2.59984 14.2867 2.65339 14.4225 2.80364C15.2252 3.69213 15.8335 4.74053 16.2028 5.88266C16.2651 6.07534 16.205 6.28658 16.0507 6.41764L14.4958 7.73773C14.0748 8.0952 14.0233 8.72627 14.3808 9.14726C14.416 9.18865 14.4544 9.22712 14.4958 9.26225L16.0507 10.5824C16.205 10.7134 16.2651 10.9247 16.2028 11.1173C15.8335 12.2595 15.2252 13.3079 14.4225 14.1964C14.2867 14.3466 14.0738 14.4002 13.8831 14.332L11.9648 13.6461C11.4447 13.4602 10.8725 13.7312 10.6866 14.2512C10.6684 14.3024 10.6543 14.3549 10.6445 14.4085L10.2781 16.4147C10.2416 16.6141 10.0885 16.7718 9.89022 16.8139C9.31037 16.9373 8.71584 17 8.11354 17C7.51086 17 6.91599 16.9372 6.3358 16.8137C6.1375 16.7715 5.98432 16.6137 5.94799 16.4143L5.58254 14.4084C5.48346 13.865 4.96268 13.5049 4.41936 13.604C4.36593 13.6137 4.31339 13.6278 4.26234 13.6461L2.34397 14.332C2.15331 14.4002 1.94035 14.3466 1.80461 14.1964C1.00191 13.3079 0.393563 12.2595 0.0242728 11.1173C-0.038028 10.9247 0.0220447 10.7134 0.176415 10.5824L1.73126 9.26227C2.15225 8.9048 2.20374 8.27373 1.84627 7.85274C1.81112 7.81135 1.77265 7.77288 1.73128 7.73775L0.176415 6.41764C0.0220447 6.28658 -0.038028 6.07534 0.0242728 5.88266ZM1.08482 5.87709L2.37852 6.97546C2.46131 7.04576 2.53824 7.12269 2.60854 7.20548C3.32348 8.04746 3.2205 9.3096 2.37849 10.0246L1.08482 11.1229C1.37687 11.9051 1.79832 12.6322 2.32976 13.2751L3.92574 12.7044C4.02802 12.6679 4.1331 12.6397 4.23995 12.6202C5.3266 12.422 6.36815 13.1423 6.56633 14.229L6.8703 15.8975C7.27817 15.9655 7.69353 16 8.11354 16C8.53327 16 8.94834 15.9656 9.35595 15.8976L9.66076 14.2289C9.68025 14.1221 9.7084 14.017 9.74495 13.9147C10.1167 12.8746 11.2612 12.3327 12.3014 12.7044L13.8973 13.2751C14.4288 12.6322 14.8502 11.9051 15.1423 11.1229L13.8486 10.0245C13.7658 9.95424 13.6888 9.87731 13.6185 9.79452C12.9036 8.95254 13.0066 7.6904 13.8486 6.97544L15.1423 5.87709C14.8502 5.09486 14.4288 4.36783 13.8973 3.72494L12.3013 4.29559C12.1991 4.33214 12.094 4.3603 11.9871 4.37979C10.9005 4.57796 9.85893 3.8577 9.66078 2.77119L9.35595 1.10235C8.94834 1.03443 8.53327 1 8.11354 1C7.69353 1 7.27817 1.03448 6.8703 1.10249L6.56632 2.77105C6.54683 2.87791 6.51867 2.98299 6.48212 3.08527C6.11042 4.12542 4.96589 4.6673 3.92565 4.29556L2.32976 3.72494C1.79832 4.36783 1.37687 5.09486 1.08482 5.87709ZM5.61354 8.5C5.61354 7.11929 6.73283 6 8.11354 6C9.49425 6 10.6135 7.11929 10.6135 8.5C10.6135 9.88071 9.49425 11 8.11354 11C6.73283 11 5.61354 9.88071 5.61354 8.5ZM6.61354 8.5C6.61354 9.32843 7.28511 10 8.11354 10C8.94197 10 9.61354 9.32843 9.61354 8.5C9.61354 7.67157 8.94197 7 8.11354 7C7.28511 7 6.61354 7.67157 6.61354 8.5Z" fill="var(--fill-0, #242424)"/>
</svg>
