<svg preserveAspectRatio="none" width="100%" height="100%" overflow="visible" style="display: block;" viewBox="0 0 18.0029 16.0006" fill="none" xmlns="http://www.w3.org/2000/svg">
<path id="Shape" d="M4.9285 0H11.1407C12.1941 0 13.1217 0.693969 13.4191 1.7046L13.8882 3.29901C14.049 3.84546 14.528 4.232 15.0874 4.28068H15.3766C16.2642 4.28068 16.9494 4.53233 17.4038 5.04832C17.8464 5.55084 17.9927 6.21838 18.0024 6.88707C18.0215 8.20801 17.5048 9.84896 17.0931 11.1554C16.7348 12.2924 16.2745 13.4729 15.6567 14.3777C15.0414 15.2788 14.2014 16.0006 13.0744 16.0006H6.87632L6.86842 16.0005H6.86214C5.80867 16.0005 4.8811 15.3066 4.58373 14.296L4.1146 12.7015C3.95389 12.1553 3.47519 11.7689 2.91607 11.7199H2.62634C1.73873 11.7199 1.05355 11.4683 0.599125 10.9523C0.156553 10.4498 0.0101824 9.78223 0.000514251 9.11354C-0.0185841 7.7926 0.498115 6.15165 0.909843 4.84517C1.26813 3.70826 1.72841 2.52772 2.34624 1.62288C2.96152 0.721782 3.80154 0 4.9285 0ZM4.73596 11.7199C4.88343 11.9288 4.9988 12.1639 5.07394 12.4193L5.54307 14.0137C5.71523 14.5988 6.25224 15.0005 6.86214 15.0005H6.88826C7.24722 14.9969 7.49102 14.8275 7.64214 14.6226C7.80927 14.3959 7.96183 14.0792 8.11661 13.6654C8.26119 13.279 8.3971 12.8382 8.54919 12.3449L8.57953 12.2465C8.64454 12.0357 8.71136 11.8183 8.77944 11.596C8.54448 11.6733 8.29475 11.7147 8.03763 11.7147H5.4122C5.3597 11.7182 5.30681 11.7199 5.25359 11.7199H4.73596ZM7.19497 10.7147L8.03762 10.7147C8.59057 10.7147 9.08452 10.3843 9.29995 9.88489C9.73731 8.43886 10.1707 6.98851 10.4709 5.98005C10.5464 5.72668 10.6614 5.4933 10.808 5.28588H9.96518C9.41264 5.28588 8.91901 5.61579 8.70333 6.11457C8.26585 7.56098 7.83234 9.01183 7.53201 10.0206C7.45657 10.2739 7.34158 10.5073 7.19497 10.7147ZM9.22353 4.40447C9.45843 4.32722 9.70812 4.28588 9.96518 4.28588H12.5917C12.6439 4.28243 12.6964 4.28068 12.7493 4.28068H13.2669C13.1194 4.07183 13.004 3.83666 12.9289 3.58128L12.4597 1.98687C12.2876 1.40177 11.7506 1 11.1407 1H11.1259C10.7608 1.00023 10.5135 1.17099 10.3608 1.37803C10.1937 1.60467 10.0411 1.92145 9.88632 2.33517C9.74172 2.72164 9.60581 3.1625 9.45369 3.65591L9.4234 3.75415C9.3584 3.96483 9.29159 4.18224 9.22353 4.40447Z" fill="var(--fill-0, #242424)"/>
</svg>
