<svg preserveAspectRatio="none" width="100%" height="100%" overflow="visible" style="display: block;" viewBox="0 0 27.4993 28.8852" fill="none" xmlns="http://www.w3.org/2000/svg">
<g id="Shape">
<path d="M27.4993 0H11.46C6.87732 0 4.12772 6.05658 2.29466 12.1132C0.122955 19.2886 -2.71877 28.8852 5.50252 28.8852H12.4282C14.4978 28.8852 16.3147 27.5168 16.8835 25.5269C18.0876 21.3143 20.1978 13.9655 21.8554 8.37123C22.6977 5.52831 23.3993 3.08673 24.4762 1.56628C25.0799 0.71385 26.086 0 27.4993 0Z" fill="url(#paint0_linear_12089_80589)"/>
<path d="M27.4993 0H11.46C6.87732 0 4.12772 6.05658 2.29466 12.1132C0.122955 19.2886 -2.71877 28.8852 5.50252 28.8852H12.4282C14.4978 28.8852 16.3147 27.5168 16.8835 25.5269C18.0876 21.3143 20.1978 13.9655 21.8554 8.37123C22.6977 5.52831 23.3993 3.08673 24.4762 1.56628C25.0799 0.71385 26.086 0 27.4993 0Z" fill="url(#paint1_linear_12089_80589)"/>
</g>
<defs>
<linearGradient id="paint0_linear_12089_80589" x1="10.7557" y1="-8.06578" x2="18.4071" y2="30.1349" gradientUnits="userSpaceOnUse">
<stop offset="0.253977" stop-color="#EA348E"/>
<stop offset="0.55966" stop-color="#FD6544"/>
<stop offset="0.844539" stop-color="#FFB152"/>
</linearGradient>
<linearGradient id="paint1_linear_12089_80589" x1="13.6414" y1="-1.12716" x2="13.6899" y2="28.8853" gradientUnits="userSpaceOnUse">
<stop stop-color="#F99ACD"/>
<stop offset="0.246674" stop-color="#F44C6D" stop-opacity="0"/>
</linearGradient>
</defs>
</svg>
