<svg preserveAspectRatio="none" width="100%" height="100%" overflow="visible" style="display: block;" viewBox="0 0 15.3999 25.882" fill="none" xmlns="http://www.w3.org/2000/svg">
<g id="Shape">
<path d="M11.2589 0C11.2589 0 13.751 0.281469 14.6999 0.281469L15.3999 5.58187L11.9 9.08186L8.39997 11.5146V14.3199C8.39997 16.2792 9.42397 18.096 11.1001 19.1106L14.7847 21.3409L6.99998 25.882H5.49852L2.70015 24.1881C1.024 23.1735 0 21.3567 0 19.3974V9.96425C0 8.00433 1.02465 6.18703 2.70165 5.17265L11.1016 0.0916953C11.1537 0.0602105 11.2061 0.0296454 11.2589 0Z" fill="url(#paint0_radial_12089_80891)"/>
<path d="M11.2589 0C11.2589 0 13.751 0.281469 14.6999 0.281469L15.3999 5.58187L11.9 9.08186L8.39997 11.5146V14.3199C8.39997 16.2792 9.42397 18.096 11.1001 19.1106L14.7847 21.3409L6.99998 25.882H5.49852L2.70015 24.1881C1.024 23.1735 0 21.3567 0 19.3974V9.96425C0 8.00433 1.02465 6.18703 2.70165 5.17265L11.1016 0.0916953C11.1537 0.0602105 11.2061 0.0296454 11.2589 0Z" fill="url(#paint1_linear_12089_80891)"/>
</g>
<defs>
<radialGradient id="paint0_radial_12089_80891" cx="0" cy="0" r="1" gradientTransform="matrix(-7.95595 19.7304 -15.958 -6.29745 11.9505 8.32984)" gradientUnits="userSpaceOnUse">
<stop offset="0.206732" stop-color="#45D586"/>
<stop offset="0.875628" stop-color="#128245"/>
</radialGradient>
<linearGradient id="paint1_linear_12089_80891" x1="11.5919" y1="23.4232" x2="9.37842" y2="18.0838" gradientUnits="userSpaceOnUse">
<stop stop-color="#0B4F28"/>
<stop offset="1" stop-color="#128647" stop-opacity="0"/>
</linearGradient>
</defs>
</svg>
