<svg preserveAspectRatio="none" width="100%" height="100%" overflow="visible" style="display: block;" viewBox="0 0 16.1389 12.1501" fill="none" xmlns="http://www.w3.org/2000/svg">
<g id="Shape">
<path d="M10.739 0V2.01615C10.739 3.27571 10.0807 4.44367 9.00315 5.09591L3.60318 8.36458C2.49854 9.03323 1.12411 9.05736 0 8.43697L5.27479 11.6299C6.42078 12.3235 7.85715 12.3235 9.00314 11.6299L14.4031 8.36119C15.4806 7.70895 16.1389 6.54099 16.1389 5.28143V3.82501L15.6889 3.15002L10.739 0Z" fill="url(#paint0_radial_12089_80151)"/>
<path d="M10.739 0V2.01615C10.739 3.27571 10.0807 4.44367 9.00315 5.09591L3.60318 8.36458C2.49854 9.03323 1.12411 9.05736 0 8.43697L5.27479 11.6299C6.42078 12.3235 7.85715 12.3235 9.00314 11.6299L14.4031 8.36119C15.4806 7.70895 16.1389 6.54099 16.1389 5.28143V3.82501L15.6889 3.15002L10.739 0Z" fill="url(#paint1_linear_12089_80151)"/>
</g>
<defs>
<radialGradient id="paint0_radial_12089_80151" cx="0" cy="0" r="1" gradientTransform="matrix(13.5691 -3.17933 7.38845 9.38794 2.12675 7.85971)" gradientUnits="userSpaceOnUse">
<stop offset="0.140029" stop-color="#D59DFF"/>
<stop offset="1" stop-color="#5E438F"/>
</radialGradient>
<linearGradient id="paint1_linear_12089_80151" x1="13.7701" y1="2.45599" x2="12.9744" y2="3.72062" gradientUnits="userSpaceOnUse">
<stop offset="0.9999" stop-color="#493474"/>
<stop offset="1" stop-color="#8C66BA" stop-opacity="0"/>
</linearGradient>
</defs>
</svg>
