<svg preserveAspectRatio="none" width="100%" height="100%" overflow="visible" style="display: block;" viewBox="0 0 27.4993 28.8852" fill="none" xmlns="http://www.w3.org/2000/svg">
<g id="Shape">
<path d="M27.4993 0H11.46C6.87732 0 4.12772 6.05658 2.29466 12.1132C0.122955 19.2886 -2.71877 28.8852 5.50252 28.8852H12.4282C14.4978 28.8852 16.3147 27.5168 16.8835 25.5269C18.0876 21.3143 20.1978 13.9655 21.8554 8.37123C22.6977 5.52831 23.3993 3.08673 24.4762 1.56628C25.0799 0.71385 26.086 0 27.4993 0Z" fill="url(#paint0_linear_12089_80551)"/>
<path d="M27.4993 0H11.46C6.87732 0 4.12772 6.05658 2.29466 12.1132C0.122955 19.2886 -2.71877 28.8852 5.50252 28.8852H12.4282C14.4978 28.8852 16.3147 27.5168 16.8835 25.5269C18.0876 21.3143 20.1978 13.9655 21.8554 8.37123C22.6977 5.52831 23.3993 3.08673 24.4762 1.56628C25.0799 0.71385 26.086 0 27.4993 0Z" fill="url(#paint1_linear_12089_80551)"/>
</g>
<defs>
<linearGradient id="paint0_linear_12089_80551" x1="8.336" y1="3.43689e-07" x2="13.5136" y2="30.4767" gradientUnits="userSpaceOnUse">
<stop offset="0.289817" stop-color="#4AA647"/>
<stop offset="0.662336" stop-color="#7DB22E"/>
<stop offset="0.950002" stop-color="#A9D356"/>
</linearGradient>
<linearGradient id="paint1_linear_12089_80551" x1="12.5" y1="-1.89804e-08" x2="13.7496" y2="28.8852" gradientUnits="userSpaceOnUse">
<stop stop-color="#B5DA6B"/>
<stop offset="0.166667" stop-color="#5DAB3F" stop-opacity="0"/>
</linearGradient>
</defs>
</svg>
