<svg preserveAspectRatio="none" width="100%" height="100%" overflow="visible" style="display: block;" viewBox="0 0 9.89997 16.6386" fill="none" xmlns="http://www.w3.org/2000/svg">
<g id="Shape">
<path d="M7.23787 0L7.13676 0.0611604C6.97592 0.158451 6.82441 0.267231 6.68303 0.38609L6.97465 0.180946H9.44997L9.89997 3.58838L7.64998 5.83839L5.39998 7.40233V9.20572C5.39998 10.4653 6.05827 11.6332 7.13579 12.2855L9.50445 13.7193L4.49999 16.6386H3.53477L1.73581 15.5496C0.658284 14.8974 0 13.7294 0 12.4699V6.40565C0 5.14569 0.658703 3.97741 1.73678 3.3253L7.13676 0.0589475C7.17022 0.0387071 7.20393 0.019058 7.23787 0Z" fill="url(#paint0_linear_12089_80705)"/>
<path d="M7.23787 0L7.13676 0.0611604C6.97592 0.158451 6.82441 0.267231 6.68303 0.38609L6.97465 0.180946H9.44997L9.89997 3.58838L7.64998 5.83839L5.39998 7.40233V9.20572C5.39998 10.4653 6.05827 11.6332 7.13579 12.2855L9.50445 13.7193L4.49999 16.6386H3.53477L1.73581 15.5496C0.658284 14.8974 0 13.7294 0 12.4699V6.40565C0 5.14569 0.658703 3.97741 1.73678 3.3253L7.13676 0.0589475C7.17022 0.0387071 7.20393 0.019058 7.23787 0Z" fill="url(#paint1_linear_12089_80705)"/>
<path d="M7.23787 0L7.13676 0.0611604C6.97592 0.158451 6.82441 0.267231 6.68303 0.38609L6.97465 0.180946H9.44997L9.89997 3.58838L7.64998 5.83839L5.39998 7.40233V9.20572C5.39998 10.4653 6.05827 11.6332 7.13579 12.2855L9.50445 13.7193L4.49999 16.6386H3.53477L1.73581 15.5496C0.658284 14.8974 0 13.7294 0 12.4699V6.40565C0 5.14569 0.658703 3.97741 1.73678 3.3253L7.13676 0.0589475C7.17022 0.0387071 7.20393 0.019058 7.23787 0Z" fill="url(#paint2_linear_12089_80705)" fill-opacity="0.3"/>
</g>
<defs>
<linearGradient id="paint0_linear_12089_80705" x1="6.07497" y1="15.1762" x2="3.8273" y2="2.8562" gradientUnits="userSpaceOnUse">
<stop offset="0.135417" stop-color="#0357D6"/>
<stop offset="0.582671" stop-color="#33B4F1"/>
<stop offset="1" stop-color="#4DD3FF"/>
</linearGradient>
<linearGradient id="paint1_linear_12089_80705" x1="3.71248" y1="0.326076" x2="2.75622" y2="6.28861" gradientUnits="userSpaceOnUse">
<stop stop-color="#8FF8FF"/>
<stop offset="1" stop-color="#6DD8FF" stop-opacity="0"/>
</linearGradient>
<linearGradient id="paint2_linear_12089_80705" x1="4.94997" y1="12.7296" x2="6.01877" y2="15.3734" gradientUnits="userSpaceOnUse">
<stop stop-opacity="0"/>
<stop offset="1"/>
</linearGradient>
</defs>
</svg>
