<svg preserveAspectRatio="none" width="100%" height="100%" overflow="visible" style="display: block;" viewBox="0 0 19.9999 21.9987" fill="none" xmlns="http://www.w3.org/2000/svg">
<path id="Shape" d="M6.01121 1.73777L1.92975 4.20653C0.731892 4.93108 0 6.22914 0 7.62907V14.367C0 15.4135 0.409005 16.4031 1.11595 17.1388C2.11281 17.7326 3.35788 17.726 4.34919 17.1193L8.55801 14.5431L7.92866 14.1621C6.73141 13.4374 5.99998 12.1397 5.99998 10.7402L6 2.01826C6 1.92418 6.00377 1.83062 6.01121 1.73777ZM7.92923 21.4206L3.83447 18.9423C4.28552 18.8301 4.72348 18.6488 5.13229 18.3986L10.6202 15.0395L12.0719 14.1608C13.2691 13.4361 14.0005 12.1384 14.0005 10.7389V10.4952L19.1827 13.6273C19.6097 13.8854 19.897 14.3156 19.9772 14.7989C19.8437 16.0296 19.1448 17.1393 18.0718 17.7888L12.0718 21.4206C10.7985 22.1914 9.20255 22.1914 7.92923 21.4206ZM19.9999 12.369V7.62918C19.9999 6.22924 19.268 4.93118 18.0702 4.20663L12.0702 0.577407C10.9652 -0.0909786 9.61743 -0.17909 8.44841 0.313073C7.85903 0.678981 7.5 1.32372 7.5 2.01826V7.83728L7.92973 7.57735C9.20253 6.80748 10.7974 6.80748 12.0702 7.57735L13.18 8.24863L13.1809 8.24708L19.9586 12.3436C19.9725 12.3519 19.9862 12.3604 19.9999 12.369Z" fill="var(--fill-0, #242424)"/>
</svg>
