<svg preserveAspectRatio="none" width="100%" height="100%" overflow="visible" style="display: block;" viewBox="0 0 12 13.0735" fill="none" xmlns="http://www.w3.org/2000/svg">
<path id="Shape" d="M3.50614 1.03107C3.50207 1.08536 3.5 1.14009 3.5 1.19517V6.5366C3.5 7.32356 3.87055 8.0646 4.50016 8.53672L5.17539 9.04306L3.08773 10.6192C2.57426 11.0069 1.87075 11.0239 1.33911 10.6616L0.922223 10.3775C0.342863 9.90607 0 9.1959 0 8.43883V4.63462C0 3.77987 0.436691 2.98436 1.15781 2.52546L3.50614 1.03107ZM5.23692 0.0985645C4.79255 0.279775 4.5 0.712606 4.5 1.19517V4.38459L4.66439 4.28185C5.48193 3.77088 6.52043 3.77554 7.33336 4.29383L12 7.26906V4.63462C12 3.77987 11.5633 2.98436 10.8422 2.52546L7.61063 0.469016C6.89403 0.0130005 6.03219 -0.110484 5.23692 0.0985645ZM8.50035 6.5407V6.2238L11.5841 8.18985C11.8644 8.36858 12.0022 8.7042 11.9283 9.02836L11.9295 9.02863C11.7788 9.64924 11.3937 10.197 10.8422 10.548L7.61063 12.6044C6.62793 13.2298 5.37207 13.2298 4.38937 12.6044L3.06522 11.7618C3.2852 11.6789 3.49591 11.5641 3.69028 11.4173L7.50673 8.5359C8.13249 8.06345 8.50035 7.32479 8.50035 6.5407Z" fill="var(--fill-0, #242424)"/>
</svg>
