<svg preserveAspectRatio="none" width="100%" height="100%" overflow="visible" style="display: block;" viewBox="0 0 12.5525 9.4499" fill="none" xmlns="http://www.w3.org/2000/svg">
<g id="Shape">
<path d="M8.35253 0V1.56808C8.35253 2.54772 7.84053 3.45612 7.00245 3.96341L2.80247 6.50565C1.94331 7.0257 0.874305 7.04447 0 6.56196L4.10261 9.04526C4.99394 9.58478 6.11112 9.58478 7.00244 9.04526L11.2024 6.50301C12.0405 5.99573 12.5525 5.08733 12.5525 4.10769V2.97495L12.2025 2.44996L8.35253 0Z" fill="url(#paint0_radial_12089_80617)"/>
<path d="M8.35253 0V1.56808C8.35253 2.54772 7.84053 3.45612 7.00245 3.96341L2.80247 6.50565C1.94331 7.0257 0.874305 7.04447 0 6.56196L4.10261 9.04526C4.99394 9.58478 6.11112 9.58478 7.00244 9.04526L11.2024 6.50301C12.0405 5.99573 12.5525 5.08733 12.5525 4.10769V2.97495L12.2025 2.44996L8.35253 0Z" fill="url(#paint1_linear_12089_80617)"/>
</g>
<defs>
<radialGradient id="paint0_radial_12089_80617" cx="0" cy="0" r="1" gradientTransform="matrix(10.1876 -3.88783 7.02258 7.809 1.38451 6.74201)" gradientUnits="userSpaceOnUse">
<stop offset="0.125644" stop-color="#D59DFF"/>
<stop offset="1" stop-color="#5E438F"/>
</radialGradient>
<linearGradient id="paint1_linear_12089_80617" x1="10.3685" y1="2.2494" x2="9.98055" y2="2.91359" gradientUnits="userSpaceOnUse">
<stop offset="0.9999" stop-color="#493474"/>
<stop offset="1" stop-color="#8C66BA" stop-opacity="0"/>
</linearGradient>
</defs>
</svg>
