<svg preserveAspectRatio="none" width="100%" height="100%" overflow="visible" style="display: block;" viewBox="0 0 29.9958 27.9974" fill="none" xmlns="http://www.w3.org/2000/svg">
<path id="Shape" d="M18.2756 0H8.69281C6.66325 0 5.16943 1.32383 4.09392 2.92738C3.01138 4.54142 2.20818 6.64143 1.58506 8.65438L1.58416 8.65728C0.870564 10.9625 -0.0325333 13.8799 0.000901756 16.2342C0.0178353 17.4266 0.273703 18.6366 1.06772 19.5544C1.88808 20.5027 3.12179 20.9579 4.6937 20.9579H4.94237C5.32836 20.9693 5.58833 21.0483 5.77137 21.1444C5.9674 21.2473 6.13031 21.3988 6.27883 21.6178C6.59881 22.0898 6.77965 22.7403 7.02654 23.6286L7.05896 23.7451C7.29675 24.5994 7.6069 25.6813 8.29107 26.5265C9.03849 27.4498 10.1418 27.9974 11.7202 27.9974H21.303C23.3326 27.9974 24.8264 26.6736 25.9019 25.0701C26.9845 23.456 27.7877 21.356 28.4108 19.3431L28.4117 19.3402C29.1253 17.0349 30.0284 14.1175 29.9949 11.7632C29.978 10.5709 29.7221 9.36087 28.9281 8.44301C28.1078 7.4947 26.8741 7.03954 25.3022 7.03954H25.0535C24.6675 7.02815 24.4075 6.94917 24.2245 6.85305C24.0285 6.75011 23.8655 6.59867 23.717 6.37963C23.397 5.90768 23.2162 5.2571 22.9693 4.3689L22.9369 4.25232C22.6991 3.39803 22.389 2.31616 21.7048 1.47097C20.9574 0.547639 19.854 0 18.2756 0ZM18.5095 9.04095C18.1383 9.52722 17.8507 10.086 17.6713 10.699C17.3095 11.9345 16.8628 13.4561 16.3895 15.058L15.8853 16.7526C15.4962 18.0601 14.2942 18.9565 12.9301 18.9565H11.4864C11.8576 18.4702 12.1451 17.9114 12.3246 17.2984C12.6863 16.0629 13.133 14.5414 13.6064 12.9394L14.1106 11.2448C14.4996 9.93736 15.7016 9.04095 17.0657 9.04095H18.5095ZM17.0657 7.04095C16.4375 7.04095 15.8301 7.15628 15.267 7.36947C15.3267 7.17153 15.3858 6.97629 15.444 6.78421L15.4963 6.61159C15.7609 5.73788 15.9961 4.96103 16.2462 4.28055C16.5133 3.55386 16.7735 3.00587 17.0537 2.6179L17.0561 2.6146C17.3036 2.27298 17.6959 2 18.2756 2C19.3284 2 19.829 2.33248 20.1503 2.72933C20.5347 3.20431 20.758 3.88269 21.0101 4.78864C21.0293 4.85734 21.0487 4.92791 21.0685 5.00004C21.2414 5.62927 21.4471 6.37751 21.7895 7.04095H17.0657ZM12.9301 20.9565C13.5584 20.9565 14.1657 20.8412 14.7289 20.628C14.6691 20.8259 14.6101 21.0211 14.5519 21.2132L14.4996 21.3858C14.235 22.2596 13.9997 23.0364 13.7496 23.7169C13.4826 24.4436 13.2224 24.9916 12.9421 25.3795L12.9397 25.3828C12.6923 25.7245 12.3 25.9974 11.7202 25.9974C10.6675 25.9974 10.1668 25.665 9.84559 25.2681C9.4611 24.7931 9.23788 24.1147 8.98571 23.2088C8.96659 23.1401 8.94719 23.0695 8.92736 22.9974C8.75443 22.3682 8.54877 21.6199 8.20637 20.9565H12.9301Z" fill="var(--fill-0, #242424)"/>
</svg>
