<svg preserveAspectRatio="none" width="100%" height="100%" overflow="visible" style="display: block;" viewBox="0 0 25.105 18.9" fill="none" xmlns="http://www.w3.org/2000/svg">
<g id="Shape">
<path d="M16.7051 0V3.1362C16.7051 5.0955 15.6811 6.91232 14.0049 7.9269L5.60494 13.0115C3.88662 14.0516 1.74861 14.0891 0 13.1241L8.20523 18.0907C9.98788 19.1698 12.2222 19.1698 14.0049 18.0907L22.4049 13.0062C24.081 11.9916 25.105 10.1748 25.105 8.21548V5.94996L24.405 4.89998L16.7051 0Z" fill="url(#paint0_radial_12089_80609)"/>
<path d="M16.7051 0V3.1362C16.7051 5.0955 15.6811 6.91232 14.0049 7.9269L5.60494 13.0115C3.88662 14.0516 1.74861 14.0891 0 13.1241L8.20523 18.0907C9.98788 19.1698 12.2222 19.1698 14.0049 18.0907L22.4049 13.0062C24.081 11.9916 25.105 10.1748 25.105 8.21548V5.94996L24.405 4.89998L16.7051 0Z" fill="url(#paint1_linear_12089_80609)" fill-opacity="0.4"/>
</g>
<defs>
<radialGradient id="paint0_radial_12089_80609" cx="0" cy="0" r="1" gradientTransform="matrix(23.1081 4.27209 7.29421 17.1347 3.76095 11.9962)" gradientUnits="userSpaceOnUse">
<stop stop-color="#63D0FF"/>
<stop offset="0.579001" stop-color="#0684E6"/>
<stop offset="1" stop-color="#0A5FDE"/>
</radialGradient>
<linearGradient id="paint1_linear_12089_80609" x1="23.0557" y1="3.87261" x2="19.1494" y2="10.1527" gradientUnits="userSpaceOnUse">
<stop/>
<stop offset="0.1875" stop-opacity="0.6"/>
<stop offset="0.801398" stop-opacity="0"/>
</linearGradient>
</defs>
</svg>
