<svg preserveAspectRatio="none" width="100%" height="100%" overflow="visible" style="display: block;" viewBox="0 0 11.2513 11.4342" fill="none" xmlns="http://www.w3.org/2000/svg">
<g id="Shape">
<path d="M11.2513 0H4.68882C2.81384 0 1.68885 2.39748 0.938854 4.79497C0.0503068 7.63537 -1.11238 11.4342 2.25134 11.4342H5.11243C5.94448 11.4342 6.67646 10.8878 6.91222 10.0899C7.40563 8.41993 8.26591 5.52162 8.94207 3.31373C9.28671 2.18837 9.57378 1.22188 10.0144 0.620007C10.2614 0.282576 10.673 0 11.2513 0Z" fill="url(#paint0_linear_12089_80805)"/>
<path d="M11.2513 0H4.68882C2.81384 0 1.68885 2.39748 0.938854 4.79497C0.0503068 7.63537 -1.11238 11.4342 2.25134 11.4342H5.11243C5.94448 11.4342 6.67646 10.8878 6.91222 10.0899C7.40563 8.41993 8.26591 5.52162 8.94207 3.31373C9.28671 2.18837 9.57378 1.22188 10.0144 0.620007C10.2614 0.282576 10.673 0 11.2513 0Z" fill="url(#paint1_linear_12089_80805)"/>
</g>
<defs>
<linearGradient id="paint0_linear_12089_80805" x1="4.40065" y1="-3.19282" x2="7.33825" y2="11.9662" gradientUnits="userSpaceOnUse">
<stop offset="0.253977" stop-color="#EA348E"/>
<stop offset="0.55966" stop-color="#FD6544"/>
<stop offset="0.844539" stop-color="#FFB152"/>
</linearGradient>
<linearGradient id="paint1_linear_12089_80805" x1="5.58133" y1="-0.446183" x2="5.59992" y2="11.4342" gradientUnits="userSpaceOnUse">
<stop stop-color="#F99ACD"/>
<stop offset="0.246674" stop-color="#F44C6D" stop-opacity="0"/>
</linearGradient>
</defs>
</svg>
