<svg preserveAspectRatio="none" width="100%" height="100%" overflow="visible" style="display: block;" viewBox="0 0 12 13.0735" fill="none" xmlns="http://www.w3.org/2000/svg">
<path id="Shape" d="M4.38937 0.469015C4.53939 0.373551 4.69577 0.292659 4.85658 0.226341L4.86443 0.221928L4.86497 0.222894C5.75558 -0.141254 6.78055 -0.0592127 7.61063 0.469016L10.8422 2.52546C11.5633 2.98436 12 3.77987 12 4.63462V8.43884C12 8.44425 12 8.44965 11.9999 8.45506C12 8.46014 12 8.46522 12 8.4703C11.9894 9.31308 11.5545 10.0947 10.8422 10.548L7.61063 12.6044C6.62793 13.2298 5.37207 13.2298 4.38937 12.6044L1.82965 10.9755C1.77539 10.9457 1.72194 10.9137 1.66944 10.8795L1.25463 10.6096L1.15781 10.548C1.12787 10.5289 1.09841 10.5093 1.06946 10.4891L0.992909 10.4393L0.995425 10.4354C0.371658 9.9655 0 9.22738 0 8.43883V4.63462C0 3.77987 0.436691 2.98436 1.15781 2.52546L4.38937 0.469015ZM11 6.62343V4.63462C11 4.12177 10.738 3.64446 10.3053 3.36913L7.07375 1.31268C6.53425 0.96936 5.87126 0.908762 5.28817 1.13089L5.26516 1.14382C4.79253 1.4094 4.5 1.90935 4.5 2.45149V4.38459L4.66586 4.28092C5.48245 3.77055 6.51959 3.77456 7.33221 4.29123L10.9779 6.60916C10.9853 6.61388 10.9927 6.61863 11 6.62343ZM4.5 5.56383V6.53661C4.5 7.00879 4.72233 7.45341 5.1001 7.73669L6.00673 8.41654L6.9043 7.73803C7.27934 7.45452 7.49975 7.01158 7.49975 6.54145V5.58277L6.79567 5.13511C6.3081 4.82511 5.68582 4.8227 5.19586 5.12892L4.5 5.56383ZM8.49975 6.21858V6.54145C8.49975 7.32501 8.13239 8.06323 7.50734 8.53574L4.54061 10.7784C4.34802 10.924 4.13926 11.0384 3.92122 11.1212L4.92625 11.7608C5.58138 12.1777 6.41862 12.1777 7.07375 11.7608L10.3053 9.70433C10.7333 9.43196 10.9943 8.96197 10.9999 8.45543C10.9949 8.04877 10.7851 7.6716 10.4413 7.45304L8.49975 6.21858ZM3.5 2.45149C3.5 2.37138 3.50383 2.29183 3.51137 2.21306L1.69469 3.36913C1.26201 3.64446 1 4.12177 1 4.63462V8.43883C1 8.92567 1.2361 9.38047 1.63016 9.66088L1.79582 9.76869L2.33576 10.1123C2.84617 10.3805 3.471 10.3334 3.93757 9.98073L5.17667 9.04403L4.50016 8.53674C3.87055 8.06461 3.5 7.32358 3.5 6.53661V2.45149Z" fill="var(--fill-0, #242424)"/>
</svg>
