<svg preserveAspectRatio="none" width="100%" height="100%" overflow="visible" style="display: block;" viewBox="0 0 12.1 20.1687" fill="none" xmlns="http://www.w3.org/2000/svg">
<g id="Shape">
<path d="M8.84629 0L8.72271 0.0741364C8.52612 0.192069 8.34095 0.323928 8.16815 0.468005L8.52457 0.219336H11.55L12.1 4.34971L9.34997 7.0771L6.59998 8.97284V11.1589C6.59998 12.6857 7.40455 14.1014 8.72152 14.892L11.6165 16.63L5.49999 20.1687H4.32027L2.12154 18.8487C0.80457 18.0581 0 16.6423 0 15.1155V7.7647C0 6.23742 0.805081 4.82128 2.12273 4.03082L8.7227 0.0714541C8.7636 0.0469194 8.8048 0.0231014 8.84629 0Z" fill="url(#paint0_linear_12089_80941)"/>
<path d="M8.84629 0L8.72271 0.0741364C8.52612 0.192069 8.34095 0.323928 8.16815 0.468005L8.52457 0.219336H11.55L12.1 4.34971L9.34997 7.0771L6.59998 8.97284V11.1589C6.59998 12.6857 7.40455 14.1014 8.72152 14.892L11.6165 16.63L5.49999 20.1687H4.32027L2.12154 18.8487C0.80457 18.0581 0 16.6423 0 15.1155V7.7647C0 6.23742 0.805081 4.82128 2.12273 4.03082L8.7227 0.0714541C8.7636 0.0469194 8.8048 0.0231014 8.84629 0Z" fill="url(#paint1_linear_12089_80941)"/>
<path d="M8.84629 0L8.72271 0.0741364C8.52612 0.192069 8.34095 0.323928 8.16815 0.468005L8.52457 0.219336H11.55L12.1 4.34971L9.34997 7.0771L6.59998 8.97284V11.1589C6.59998 12.6857 7.40455 14.1014 8.72152 14.892L11.6165 16.63L5.49999 20.1687H4.32027L2.12154 18.8487C0.80457 18.0581 0 16.6423 0 15.1155V7.7647C0 6.23742 0.805081 4.82128 2.12273 4.03082L8.7227 0.0714541C8.7636 0.0469194 8.8048 0.0231014 8.84629 0Z" fill="url(#paint2_linear_12089_80941)" fill-opacity="0.3"/>
</g>
<defs>
<linearGradient id="paint0_linear_12089_80941" x1="7.42497" y1="18.396" x2="4.72141" y2="3.4543" gradientUnits="userSpaceOnUse">
<stop offset="0.135417" stop-color="#0357D6"/>
<stop offset="0.582671" stop-color="#33B4F1"/>
<stop offset="1" stop-color="#4DD3FF"/>
</linearGradient>
<linearGradient id="paint1_linear_12089_80941" x1="4.53748" y1="0.395258" x2="3.38739" y2="7.62581" gradientUnits="userSpaceOnUse">
<stop stop-color="#8FF8FF"/>
<stop offset="1" stop-color="#6DD8FF" stop-opacity="0"/>
</linearGradient>
<linearGradient id="paint2_linear_12089_80941" x1="6.04997" y1="15.4304" x2="7.33783" y2="18.6425" gradientUnits="userSpaceOnUse">
<stop stop-opacity="0"/>
<stop offset="1"/>
</linearGradient>
</defs>
</svg>
