<svg preserveAspectRatio="none" width="100%" height="100%" overflow="visible" style="display: block;" viewBox="0 0 26 23.991" fill="none" xmlns="http://www.w3.org/2000/svg">
<path id="Shape" d="M7.55827 0C5.83506 0 4.54856 1.10245 3.60398 2.48451C2.65565 3.87206 1.94865 5.68327 1.39797 7.42904C0.764717 9.43654 -0.0285233 11.954 0.000789078 13.9795C0.0156249 15.0046 0.240266 16.025 0.916649 16.7923C1.61071 17.5796 2.6581 17.965 4.01899 17.965H4.12801C4.40601 17.9891 4.61121 18.0529 4.76736 18.1324C4.96509 18.233 5.12373 18.3786 5.26314 18.5778C5.5561 18.9963 5.72002 19.5679 5.93541 20.3188L5.96727 20.4299C6.17743 21.1613 6.44572 22.0622 7.02733 22.7655L7.03829 22.7787C7.67395 23.5394 8.60791 23.991 9.96078 23.991H18.4417C20.1649 23.991 21.4514 22.8885 22.396 21.5065C23.3443 20.1189 24.0513 18.3077 24.602 16.5619C25.2353 14.5544 26.0285 12.037 25.9992 10.0115C25.9844 8.98636 25.7597 7.96597 25.0834 7.19868C24.3893 6.41134 23.3419 6.02602 21.981 6.02602H21.872C21.594 6.00186 21.3888 5.93802 21.2326 5.85859C21.0349 5.75801 20.8763 5.61239 20.7369 5.4132C20.4439 4.99462 20.28 4.4231 20.0646 3.67213L20.0327 3.5611C19.8226 2.82969 19.5543 1.92872 18.9727 1.22549L18.9617 1.21228C18.326 0.451572 17.3921 0 16.0392 0H7.55827ZM19.3508 6.02717C19.284 6.02872 19.2176 6.03182 19.1515 6.03645H14.8934C14.2988 6.03645 13.7264 6.16004 13.2047 6.38612C13.2718 6.16792 13.3379 5.95328 13.4028 5.74301L13.4494 5.59199C13.6832 4.83432 13.8923 4.15671 14.1148 3.5626C14.353 2.92664 14.5882 2.43829 14.8466 2.0882C15.0844 1.76607 15.4703 1.5 16.0392 1.5C16.832 1.5 17.3012 1.70002 17.6157 1.97409C17.6882 2.03733 17.7525 2.10453 17.8107 2.17411C18.1672 2.60081 18.3689 3.20223 18.5911 3.97535C18.6079 4.03394 18.6249 4.09392 18.6423 4.15504C18.8093 4.74322 19.0064 5.43737 19.3508 6.02717ZM16.1991 7.53645C15.8294 7.97426 15.5444 8.49124 15.373 9.06571C15.0494 10.1506 14.6469 11.4961 14.2201 12.9135L13.7382 14.5026C13.3866 15.6618 12.3179 16.4545 11.1066 16.4545H9.80088C10.1706 16.0167 10.4556 15.4997 10.627 14.9253C10.9506 13.8404 11.3531 12.4949 11.7799 11.0775L12.2618 9.48837C12.6134 8.32912 13.6821 7.53645 14.8934 7.53645H16.1991ZM6.64924 17.9638C6.71599 17.9622 6.78243 17.9591 6.84853 17.9545H11.1066C11.7012 17.9545 12.2736 17.8309 12.7953 17.6049C12.7282 17.8231 12.6621 18.0377 12.5972 18.248L12.5506 18.399C12.3168 19.1566 12.1077 19.8343 11.8852 20.4284C11.647 21.0643 11.4118 21.5527 11.1534 21.9028C10.9156 22.2249 10.5297 22.491 9.96078 22.491C9.16797 22.491 8.69876 22.2909 8.38434 22.0169C8.31179 21.9536 8.24749 21.8864 8.18935 21.8169C7.83279 21.3902 7.63108 20.7887 7.40894 20.0156C7.3921 19.957 7.37507 19.897 7.35771 19.8359C7.1907 19.2477 6.99359 18.5536 6.64924 17.9638Z" fill="var(--fill-0, #242424)"/>
</svg>
