<svg preserveAspectRatio="none" width="100%" height="100%" overflow="visible" style="display: block;" viewBox="0 0 13.1953 22.1765" fill="none" xmlns="http://www.w3.org/2000/svg">
<g id="Shape">
<path d="M9.64708 0L9.51231 0.0815167C9.51231 0.0815167 11.8309 0.241171 12.5955 0.241171L13.1953 4.78272L10.1964 7.78162L7.19743 9.86609V12.2697C7.19743 13.9485 8.07483 15.5052 9.51102 16.3745L12.6681 18.2855L5.99786 22.1765H4.71135L2.31359 20.7251C0.877402 19.8558 0 18.2991 0 16.6203V8.53768C0 6.85836 0.877959 5.30124 2.31488 4.43209L9.51231 0.0785674C9.55691 0.0515902 9.60184 0.0254011 9.64708 0Z" fill="url(#paint0_radial_12089_80671)"/>
<path d="M9.64708 0L9.51231 0.0815167C9.51231 0.0815167 11.8309 0.241171 12.5955 0.241171L13.1953 4.78272L10.1964 7.78162L7.19743 9.86609V12.2697C7.19743 13.9485 8.07483 15.5052 9.51102 16.3745L12.6681 18.2855L5.99786 22.1765H4.71135L2.31359 20.7251C0.877402 19.8558 0 18.2991 0 16.6203V8.53768C0 6.85836 0.877959 5.30124 2.31488 4.43209L9.51231 0.0785674C9.55691 0.0515902 9.60184 0.0254011 9.64708 0Z" fill="url(#paint1_linear_12089_80671)"/>
</g>
<defs>
<radialGradient id="paint0_radial_12089_80671" cx="0" cy="0" r="1" gradientTransform="matrix(-6.81698 16.9056 -13.6734 -5.39585 10.2397 7.13726)" gradientUnits="userSpaceOnUse">
<stop offset="0.206732" stop-color="#45D586"/>
<stop offset="0.875628" stop-color="#128245"/>
</radialGradient>
<linearGradient id="paint1_linear_12089_80671" x1="8.71918" y1="19.9811" x2="7.61916" y2="17.9217" gradientUnits="userSpaceOnUse">
<stop offset="0.9999" stop-color="#0F773F"/>
<stop offset="1" stop-color="#0078D4" stop-opacity="0"/>
</linearGradient>
</defs>
</svg>
