<svg preserveAspectRatio="none" width="100%" height="100%" overflow="visible" style="display: block;" viewBox="0 0 11 18.419" fill="none" xmlns="http://www.w3.org/2000/svg">
<g id="Shape">
<path d="M7.92973 0V0.133093H10.5L11 3.91906L8.49997 6.41903L5.99998 8.15671V10.1604C5.99998 11.5599 6.73141 12.8576 7.92866 13.5823L10.5605 15.1754L4.99999 18.419H3.92752L1.92868 17.2091C0.731427 16.4844 0 15.1867 0 13.7872V7.04931C0 5.64937 0.731892 4.35131 1.92975 3.62676L7.92973 0Z" fill="url(#paint0_radial_12089_80775)"/>
<path d="M7.92973 0V0.133093H10.5L11 3.91906L8.49997 6.41903L5.99998 8.15671V10.1604C5.99998 11.5599 6.73141 12.8576 7.92866 13.5823L10.5605 15.1754L4.99999 18.419H3.92752L1.92868 17.2091C0.731427 16.4844 0 15.1867 0 13.7872V7.04931C0 5.64937 0.731892 4.35131 1.92975 3.62676L7.92973 0Z" fill="url(#paint1_linear_12089_80775)"/>
</g>
<defs>
<radialGradient id="paint0_radial_12089_80775" cx="0" cy="0" r="1" gradientTransform="matrix(-5.68282 14.0412 -11.3986 -4.4816 8.53607 5.92796)" gradientUnits="userSpaceOnUse">
<stop offset="0.206732" stop-color="#45D586"/>
<stop offset="0.875628" stop-color="#128245"/>
</radialGradient>
<linearGradient id="paint1_linear_12089_80775" x1="7.26855" y1="16.5956" x2="6.35679" y2="14.8823" gradientUnits="userSpaceOnUse">
<stop offset="0.9999" stop-color="#0F773F"/>
<stop offset="1" stop-color="#0078D4" stop-opacity="0"/>
</linearGradient>
</defs>
</svg>
