<svg preserveAspectRatio="none" width="100%" height="100%" overflow="visible" style="display: block;" viewBox="0 0 13.1953 22.1765" fill="none" xmlns="http://www.w3.org/2000/svg">
<g id="Shape">
<path d="M9.64708 0L9.51231 0.0815167C9.51231 0.0815167 11.8309 0.241171 12.5955 0.241171L13.1953 4.78272L10.1964 7.78162L7.19743 9.86609V12.2697C7.19743 13.9485 8.07483 15.5052 9.51102 16.3745L12.6681 18.2855L5.99786 22.1765H4.71135L2.31359 20.7251C0.877402 19.8558 0 18.2991 0 16.6203V8.53768C0 6.85836 0.877959 5.30124 2.31488 4.43209L9.51231 0.0785674C9.55691 0.0515902 9.60184 0.0254011 9.64708 0Z" fill="url(#paint0_linear_12089_80825)"/>
<path d="M9.64708 0L9.51231 0.0815167C9.51231 0.0815167 11.8309 0.241171 12.5955 0.241171L13.1953 4.78272L10.1964 7.78162L7.19743 9.86609V12.2697C7.19743 13.9485 8.07483 15.5052 9.51102 16.3745L12.6681 18.2855L5.99786 22.1765H4.71135L2.31359 20.7251C0.877402 19.8558 0 18.2991 0 16.6203V8.53768C0 6.85836 0.877959 5.30124 2.31488 4.43209L9.51231 0.0785674C9.55691 0.0515902 9.60184 0.0254011 9.64708 0Z" fill="url(#paint1_linear_12089_80825)"/>
</g>
<defs>
<linearGradient id="paint0_linear_12089_80825" x1="11.3626" y1="5.87165" x2="5.15121" y2="25.1422" gradientUnits="userSpaceOnUse">
<stop stop-color="#AE7FE2"/>
<stop offset="1" stop-color="#0078D4"/>
</linearGradient>
<linearGradient id="paint1_linear_12089_80825" x1="8.71917" y1="19.9902" x2="7.62625" y2="17.9356" gradientUnits="userSpaceOnUse">
<stop offset="0.9999" stop-color="#114A8B"/>
<stop offset="1" stop-color="#0078D4" stop-opacity="0"/>
</linearGradient>
</defs>
</svg>
