<svg preserveAspectRatio="none" width="100%" height="100%" overflow="visible" style="display: block;" viewBox="0 0 14.6603 15.9545" fill="none" xmlns="http://www.w3.org/2000/svg">
<path id="Shape" d="M12.7236 11.4625C10.7958 14.8016 6.52617 15.9456 3.1871 14.0178C2.43059 13.5811 1.77498 13.0174 1.24094 12.3545C4.07166 11.2673 5.79891 9.93391 6.83386 7.95831C7.88148 5.95855 8.16993 3.79765 7.59324 1.04901C8.49095 1.1673 9.36326 1.46119 10.1683 1.926C13.5074 3.85381 14.6514 8.12345 12.7236 11.4625ZM2.6871 14.8838C6.50446 17.0878 11.3857 15.7799 13.5896 11.9625C15.7936 8.14516 14.4857 3.26392 10.6683 1.05997C9.56756 0.424449 8.35374 0.0675498 7.11128 0.000890588C6.71057 -0.0206085 6.40264 0.350591 6.49779 0.740442C7.18592 3.55977 6.93172 5.61658 5.94805 7.49426C5.01368 9.27785 3.40348 10.5248 0.397078 11.6008C0.0271368 11.7332 -0.117018 12.1802 0.105836 12.5038C0.772387 13.4717 1.64753 14.2837 2.6871 14.8838Z" fill="var(--fill-0, #0078D4)"/>
</svg>
