<svg preserveAspectRatio="none" width="100%" height="100%" overflow="visible" style="display: block;" viewBox="0 0 43.9828 39.99" fill="none" xmlns="http://www.w3.org/2000/svg">
<path id="Shape" d="M42.4614 11.76C41.3014 10.44 39.5514 9.79 37.2714 9.79H36.8014C35.6214 9.75 35.0514 9.32 34.6614 8.78C34.2014 8.15 33.9314 7.3 33.6014 6.19C33.5814 6.12 33.5614 6.04 33.5314 5.96L33.4814 5.78C33.1714 4.74 32.7714 3.47 32.0114 2.4C31.9014 2.25 31.7914 2.1 31.6614 1.96C30.5914 0.73 29.0314 0 26.7914 0H12.6214C9.74138 0 7.59138 1.86 6.01138 4.18C4.43138 6.51 3.25138 9.56 2.33138 12.5C1.27138 15.88 -0.0486213 20.12 0.00137868 23.52C0.0213787 25.24 0.401379 26.96 1.53138 28.24C2.69138 29.56 4.44138 30.21 6.72138 30.21H7.19138C8.37138 30.25 8.94138 30.68 9.33138 31.22C9.82138 31.89 10.0914 32.81 10.4614 34.03L10.5114 34.21C10.8714 35.4 11.3314 36.88 12.3214 38.03C13.3914 39.26 14.9514 39.99 17.1914 39.99H31.3614C34.2414 39.99 36.3914 38.13 37.9714 35.81C39.5514 33.48 40.7314 30.43 41.6514 27.49C42.7114 24.11 44.0314 19.87 43.9814 16.47C43.9614 14.75 43.5814 13.03 42.4514 11.75L42.4614 11.76ZM20.4014 34.03C20.0014 35.1 19.6114 35.93 19.1814 36.52C18.7814 37.07 18.1314 37.51 17.1914 37.51C15.5514 37.51 14.7314 37.01 14.2114 36.41C13.6214 35.72 13.2814 34.76 12.9014 33.51C12.8714 33.42 12.8414 33.32 12.8114 33.22C12.5314 32.28 12.2014 31.18 11.6414 30.23H18.9914C19.9814 30.23 20.9414 30.02 21.8114 29.64C21.7114 29.96 21.6114 30.29 21.5214 30.61C21.1314 31.89 20.7814 33.03 20.4114 34.03H20.4014ZM26.2414 14.87C25.5614 17.16 24.8814 19.45 24.2014 21.73L23.3814 24.46C22.8014 26.4 21.0114 27.72 18.9914 27.72H16.3314C16.9614 26.98 17.4514 26.12 17.7414 25.14C18.2814 23.31 18.9614 21.03 19.6714 18.64L20.6014 15.55C21.1814 13.61 22.9714 12.29 24.9914 12.29H27.6314C27.0014 13.03 26.5214 13.9 26.2414 14.87ZM24.9914 9.79C23.9914 9.79 23.0414 10 22.1614 10.38C22.2314 10.14 22.3114 9.9 22.3814 9.66L22.4614 9.41C22.8514 8.13 23.2014 6.99 23.5714 5.99C23.9714 4.92 24.3614 4.09 24.7914 3.5C24.9914 3.23 25.2514 2.98 25.5814 2.8C25.9114 2.62 26.3114 2.51 26.7814 2.51C27.8214 2.51 28.5314 2.71 29.0414 3.01C29.3414 3.18 29.5714 3.39 29.7614 3.61C30.3514 4.3 30.6914 5.26 31.0714 6.51C31.1014 6.6 31.1314 6.7 31.1614 6.8C31.4414 7.74 31.7714 8.84 32.3314 9.79H24.9814H24.9914Z" fill="var(--fill-0, #242424)"/>
</svg>
