<svg preserveAspectRatio="none" width="100%" height="100%" overflow="visible" style="display: block;" viewBox="0 0 21.9916 19.9984" fill="none" xmlns="http://www.w3.org/2000/svg">
<path id="Shape" d="M2.99616 2.13108C3.78473 0.964557 4.88134 0 6.37102 0H13.5998C14.67 0 15.4199 0.385129 15.9269 1.02953C16.3733 1.597 16.5863 2.32095 16.7509 2.88053L16.7615 2.91667C16.9478 3.54948 17.0861 3.99706 17.3236 4.31217C17.496 4.54082 17.7454 4.73129 18.2831 4.75458H18.5427C19.6932 4.75458 20.6001 5.08495 21.2048 5.7785C21.7906 6.45036 21.9785 7.33537 21.991 8.20368C22.0155 9.91534 21.3545 12.0339 20.8337 13.7031L20.8321 13.7083C20.3765 15.1684 19.7887 16.694 18.9955 17.8673C18.2069 19.0339 17.1103 19.9984 15.6206 19.9984H8.39183L8.38604 19.9984C7.31896 19.997 6.57089 19.6121 6.06482 18.9689C5.61835 18.4014 5.40539 17.6775 5.24077 17.1179L5.23014 17.0817C5.04384 16.4489 4.90562 16.0014 4.66804 15.6862C4.49568 15.4577 4.24637 15.2672 3.70905 15.2439H3.44893C2.29847 15.2439 1.39149 14.9135 0.786786 14.2199C0.200988 13.5481 0.0130904 12.6631 0.000661549 11.7947C-0.0238388 10.0831 0.637147 7.96452 1.15793 6.29532L1.15954 6.29017C1.61511 4.83 2.20297 3.30446 2.99616 2.13108ZM8.47312 13.7414H9.45271C10.4094 13.7414 11.2528 13.114 11.5279 12.1977L12.0121 10.5846C12.3628 9.40718 12.6935 8.28949 12.9597 7.38732C13.0821 6.97234 13.2733 6.59189 13.5185 6.25697H12.539C11.5823 6.25697 10.7388 6.88441 10.4638 7.80069L9.97932 9.41458L9.97718 9.42158C9.62739 10.5962 9.29758 11.7109 9.03196 12.6111C8.90952 13.0261 8.71837 13.4065 8.47312 13.7414ZM13.4245 1.51056C13.2471 1.5314 13.0658 1.58222 12.9019 1.65536C12.6742 1.75703 12.5431 1.87304 12.496 1.93749L12.4918 1.94323C12.29 2.22147 12.1017 2.61497 11.9077 3.13872C11.7252 3.63118 11.5536 4.19366 11.3602 4.8273L11.3178 4.96602C11.7024 4.83011 12.1141 4.75697 12.539 4.75697H15.8399C15.6066 4.30854 15.4639 3.82186 15.3457 3.41883L15.3226 3.3403C15.1386 2.71534 14.9936 2.26919 14.748 1.95703C14.5532 1.70949 14.257 1.5 13.5998 1.5C13.5423 1.5 13.4836 1.50361 13.4245 1.51056ZM10.084 16.8597C10.2664 16.3672 10.4381 15.8048 10.6315 15.1711L10.6738 15.0324C10.2893 15.1683 9.87758 15.2414 9.45271 15.2414H6.15181C6.38508 15.6899 6.52782 16.1766 6.64602 16.5796L6.66908 16.6581C6.85307 17.2831 6.99809 17.7292 7.24369 18.0414C7.43845 18.2889 7.73464 18.4984 8.39183 18.4984C8.62169 18.4984 8.87129 18.4406 9.08975 18.343C9.31745 18.2414 9.44861 18.1254 9.49566 18.0609L9.49736 18.0586C9.70008 17.7802 9.88917 17.3856 10.084 16.8597Z" fill="var(--fill-0, #242424)"/>
</svg>
