<svg preserveAspectRatio="none" width="100%" height="100%" overflow="visible" style="display: block;" viewBox="0 0 10.0004 10.5023" fill="none" xmlns="http://www.w3.org/2000/svg">
<g id="Shape">
<path d="M0 10.5023H5.83288C7.49941 10.5023 8.49934 8.30024 9.16595 6.09814C9.95572 3.48921 10.9891 0 7.99938 0H5.31016C4.65848 0 4.08639 0.4308 3.90735 1.0574C3.47911 2.55609 2.67734 5.35014 2.05248 7.45866C1.74615 8.49232 1.49099 9.38005 1.0994 9.93287C0.879853 10.2428 0.513946 10.5023 0 10.5023Z" fill="url(#paint0_radial_12089_80837)"/>
<path d="M0 10.5023H5.83288C7.49941 10.5023 8.49934 8.30024 9.16595 6.09814C9.95572 3.48921 10.9891 0 7.99938 0H5.31016C4.65848 0 4.08639 0.4308 3.90735 1.0574C3.47911 2.55609 2.67734 5.35014 2.05248 7.45866C1.74615 8.49232 1.49099 9.38005 1.0994 9.93287C0.879853 10.2428 0.513946 10.5023 0 10.5023Z" fill="url(#paint1_linear_12089_80837)"/>
</g>
<defs>
<radialGradient id="paint0_radial_12089_80837" cx="0" cy="0" r="1" gradientTransform="matrix(-7.03945 15.8215 -18.8312 -8.86624 8.64053 -2.57273)" gradientUnits="userSpaceOnUse">
<stop offset="0.0997262" stop-color="#8C48FF"/>
<stop offset="0.5" stop-color="#E03F8F"/>
<stop offset="0.895833" stop-color="#FFB152"/>
</radialGradient>
<linearGradient id="paint1_linear_12089_80837" x1="8.75981" y1="-0.641192" x2="8.41748" y2="2.83544" gradientUnits="userSpaceOnUse">
<stop offset="0.0581535" stop-color="#F8ADFA"/>
<stop offset="0.708063" stop-color="#A86EDD" stop-opacity="0"/>
</linearGradient>
</defs>
</svg>
