<svg preserveAspectRatio="none" width="100%" height="100%" overflow="visible" style="display: block;" viewBox="0 0 12.5525 9.4499" fill="none" xmlns="http://www.w3.org/2000/svg">
<g id="Shape">
<path d="M8.35253 0V1.56808C8.35253 2.54772 7.84053 3.45612 7.00245 3.96341L2.80247 6.50565C1.94331 7.0257 0.874305 7.04447 0 6.56196L4.10261 9.04526C4.99394 9.58478 6.11112 9.58478 7.00244 9.04526L11.2024 6.50301C12.0405 5.99573 12.5525 5.08733 12.5525 4.10769V2.97495L12.2025 2.44996L8.35253 0Z" fill="url(#paint0_radial_12089_80937)"/>
<path d="M8.35253 0V1.56808C8.35253 2.54772 7.84053 3.45612 7.00245 3.96341L2.80247 6.50565C1.94331 7.0257 0.874305 7.04447 0 6.56196L4.10261 9.04526C4.99394 9.58478 6.11112 9.58478 7.00244 9.04526L11.2024 6.50301C12.0405 5.99573 12.5525 5.08733 12.5525 4.10769V2.97495L12.2025 2.44996L8.35253 0Z" fill="url(#paint1_linear_12089_80937)" fill-opacity="0.4"/>
</g>
<defs>
<radialGradient id="paint0_radial_12089_80937" cx="0" cy="0" r="1" gradientTransform="matrix(11.5541 2.13602 3.64711 8.56726 1.88048 5.99803)" gradientUnits="userSpaceOnUse">
<stop stop-color="#63D0FF"/>
<stop offset="0.579001" stop-color="#0684E6"/>
<stop offset="1" stop-color="#0A5FDE"/>
</radialGradient>
<linearGradient id="paint1_linear_12089_80937" x1="11.5278" y1="1.93628" x2="9.57471" y2="5.07634" gradientUnits="userSpaceOnUse">
<stop/>
<stop offset="0.1875" stop-opacity="0.6"/>
<stop offset="0.801398" stop-opacity="0"/>
</linearGradient>
</defs>
</svg>
