<svg preserveAspectRatio="none" width="100%" height="100%" overflow="visible" style="display: block;" viewBox="0 0 16.0588 14.0001" fill="none" xmlns="http://www.w3.org/2000/svg">
<path id="Shape" d="M2.81873 10.7975H2.38334C1.58022 10.7975 0.95319 10.5592 0.538396 10.0689C0.138351 9.59591 0.00902925 8.9726 0.000457089 8.3553C-0.0165118 7.13332 0.442404 5.61654 0.806827 4.41257C1.12481 3.36201 1.53421 2.29003 2.08655 1.47171C2.63685 0.656419 3.39622 6.10352e-05 4.4224 6.10352e-05H9.25502L9.27059 0H10.131C10.9641 0 11.7058 0.527087 11.9799 1.31372L12.4152 2.5632C12.5405 2.92278 12.8655 3.17151 13.2401 3.20263H13.6755C14.4786 3.20263 15.1056 3.4409 15.5204 3.93127C15.9205 4.40421 16.0498 5.02752 16.0584 5.64482C16.0753 6.8668 15.6164 8.38358 15.252 9.58756C14.934 10.6381 14.5246 11.7101 13.9723 12.5284C13.422 13.3437 12.6626 14.0001 11.6364 14.0001H6.80381C6.79863 14.0001 6.79344 14.0001 6.78825 14.0001H5.9278C5.09479 14.0001 4.35299 13.473 4.07893 12.6864L3.64361 11.4369C3.51833 11.0773 3.19329 10.8286 2.81873 10.7975ZM6.73361 9.3759C6.69129 9.52399 6.6326 9.664 6.55982 9.79419H7.09127C7.50789 9.79419 7.87674 9.52489 8.00363 9.12805L8.25491 8.34215C8.66174 6.94119 9.06271 5.54282 9.32522 4.62422C9.36754 4.47613 9.42624 4.33612 9.49901 4.20593H8.96757C8.55094 4.20593 8.18209 4.47524 8.05521 4.87208L7.80393 5.65798C7.3971 7.05893 6.99613 8.45731 6.73361 9.3759ZM4.44858 10.7975C4.5033 10.8955 4.55008 10.9993 4.58794 11.1079L5.02326 12.3574C5.15734 12.7423 5.52026 13.0001 5.9278 13.0001H6.13877C6.14139 13.0001 6.14402 13.0001 6.14666 13.0001C6.51964 13.0001 6.68671 12.8856 6.77337 12.7633C6.91852 12.5583 7.05252 12.2695 7.18945 11.8884C7.31089 11.5505 7.42545 11.1672 7.55221 10.7393C7.40361 10.7753 7.24911 10.7942 7.09127 10.7942L4.96364 10.7942C4.92584 10.7964 4.88781 10.7975 4.84956 10.7975H4.44858ZM11.2093 3.20263H11.6103C11.5555 3.10458 11.5088 3.00087 11.4709 2.89221L11.0356 1.64272C10.9015 1.25787 10.5386 1 10.131 1H9.92007L9.91218 1.00006C9.53919 1.00006 9.37212 1.1145 9.28547 1.23684C9.14032 1.44178 9.00632 1.73063 8.86939 2.11167C8.74795 2.44962 8.63339 2.83289 8.50663 3.26082C8.65523 3.22484 8.80972 3.20593 8.96757 3.20593L11.0952 3.20593C11.133 3.20374 11.171 3.20263 11.2093 3.20263Z" fill="var(--fill-0, #242424)"/>
</svg>
