<svg preserveAspectRatio="none" width="100%" height="100%" overflow="visible" style="display: block;" viewBox="0 0 10.0004 10.5035" fill="none" xmlns="http://www.w3.org/2000/svg">
<g id="Shape">
<path d="M10.0004 0H4.16755C2.50102 0 1.50109 2.20235 0.834479 4.40471C0.044714 7.01392 -0.988711 10.5035 2.00105 10.5035H4.69024C5.34194 10.5035 5.91403 10.0727 6.09306 9.44608C6.52129 7.94725 7.32308 5.15282 7.94795 3.04403C8.25428 2.01026 8.50944 1.12243 8.90103 0.569545C9.12058 0.259577 9.48649 0 10.0004 0Z" fill="url(#paint0_linear_12089_80845)"/>
<path d="M10.0004 0H4.16755C2.50102 0 1.50109 2.20235 0.834479 4.40471C0.044714 7.01392 -0.988711 10.5035 2.00105 10.5035H4.69024C5.34194 10.5035 5.91403 10.0727 6.09306 9.44608C6.52129 7.94725 7.32308 5.15282 7.94795 3.04403C8.25428 2.01026 8.50944 1.12243 8.90103 0.569545C9.12058 0.259577 9.48649 0 10.0004 0Z" fill="url(#paint1_linear_12089_80845)"/>
</g>
<defs>
<linearGradient id="paint0_linear_12089_80845" x1="3.91141" y1="-2.93296" x2="6.69349" y2="10.958" gradientUnits="userSpaceOnUse">
<stop offset="0.253977" stop-color="#EA348E"/>
<stop offset="0.55966" stop-color="#FD6544"/>
<stop offset="0.844539" stop-color="#FFB152"/>
</linearGradient>
<linearGradient id="paint1_linear_12089_80845" x1="4.96083" y1="-0.409868" x2="4.97849" y2="10.5036" gradientUnits="userSpaceOnUse">
<stop stop-color="#F99ACD"/>
<stop offset="0.246674" stop-color="#F44C6D" stop-opacity="0"/>
</linearGradient>
</defs>
</svg>
