<svg preserveAspectRatio="none" width="100%" height="100%" overflow="visible" style="display: block;" viewBox="0 0 35.8643 27.0012" fill="none" xmlns="http://www.w3.org/2000/svg">
<g id="Shape">
<path d="M23.8644 0V4.48049C23.8644 7.27961 22.4015 9.87517 20.007 11.3246L8.00706 18.5886C5.55232 20.0745 2.49801 20.1282 0 18.7495L11.7217 25.845C14.2684 27.3866 17.4603 27.3866 20.007 25.845L32.0069 18.5811C34.4014 17.1316 35.8643 14.536 35.8643 11.7369V8.50031L34.8643 7.00027L23.8644 0Z" fill="url(#paint0_radial_12089_80917)"/>
<path d="M23.8644 0V4.48049C23.8644 7.27961 22.4015 9.87517 20.007 11.3246L8.00706 18.5886C5.55232 20.0745 2.49801 20.1282 0 18.7495L11.7217 25.845C14.2684 27.3866 17.4603 27.3866 20.007 25.845L32.0069 18.5811C34.4014 17.1316 35.8643 14.536 35.8643 11.7369V8.50031L34.8643 7.00027L23.8644 0Z" fill="url(#paint1_linear_12089_80917)" fill-opacity="0.4"/>
</g>
<defs>
<radialGradient id="paint0_radial_12089_80917" cx="0" cy="0" r="1" gradientTransform="matrix(33.0116 6.10325 10.4203 24.4792 5.37278 17.1382)" gradientUnits="userSpaceOnUse">
<stop stop-color="#63D0FF"/>
<stop offset="0.579001" stop-color="#0684E6"/>
<stop offset="1" stop-color="#0A5FDE"/>
</radialGradient>
<linearGradient id="paint1_linear_12089_80917" x1="32.9367" y1="5.53254" x2="27.3559" y2="14.5043" gradientUnits="userSpaceOnUse">
<stop/>
<stop offset="0.1875" stop-opacity="0.6"/>
<stop offset="0.801398" stop-opacity="0"/>
</linearGradient>
</defs>
</svg>
