<svg preserveAspectRatio="none" width="100%" height="100%" overflow="visible" style="display: block;" viewBox="0 0 21.9995 19.9994" fill="none" xmlns="http://www.w3.org/2000/svg">
<path id="Shape" d="M3.69014 15.2439C4.246 15.262 4.5007 15.4549 4.6759 15.6873C4.91348 16.0024 5.0517 16.4499 5.238 17.0828L5.24864 17.1189C5.41325 17.6785 5.62622 18.4024 6.07268 18.9699C6.57967 19.6143 7.32953 19.9994 8.39969 19.9994H15.6285C17.1182 19.9994 18.2148 19.0349 19.0033 17.8683C19.7965 16.695 20.3844 15.1694 20.84 13.7093L20.8416 13.7041C21.3623 12.0349 22.0233 9.91634 21.9988 8.20468C21.9864 7.33638 21.7985 6.45136 21.2127 5.7795C20.608 5.08595 19.701 4.75558 18.5506 4.75558H18.3093C17.7535 4.73744 17.4988 4.54452 17.3236 4.31217C17.086 3.99706 16.9478 3.54948 16.7615 2.91667L16.7508 2.88051C16.5862 2.32093 16.3733 1.59699 15.9268 1.02953C15.4198 0.385129 14.67 0 13.5998 0H6.37102C4.88134 0 3.78473 0.964557 2.99616 2.13108C2.20297 3.30446 1.61511 4.83 1.15954 6.29018L1.15793 6.29532C0.637147 7.96452 -0.0238388 10.0831 0.000661548 11.7947C0.0130903 12.6631 0.200988 13.5481 0.786786 14.2199C1.39149 14.9135 2.29846 15.2439 3.44893 15.2439H3.69014ZM2.59146 6.73693C3.035 5.31533 3.57101 3.9591 4.23886 2.97114C4.91135 1.97633 5.61295 1.5 6.37102 1.5H11.0003C10.8082 1.84409 10.6465 2.22495 10.501 2.61771C10.3027 3.1533 10.1186 3.75649 9.92957 4.37603L9.88745 4.51402C9.13697 6.9711 8.19812 10.1367 7.59328 12.1866C7.32816 13.0852 6.51917 13.7093 5.58941 13.7425H3.60295C3.58748 13.7425 3.57212 13.7429 3.55687 13.7439H3.44893C2.58316 13.7439 2.15219 13.5035 1.91739 13.2342C1.66368 12.9432 1.51053 12.4733 1.50051 11.7733C1.48014 10.3501 2.04729 8.4811 2.59146 6.73693ZM17.7606 17.0283C17.0881 18.0231 16.3865 18.4994 15.6285 18.4994H10.9992C11.1913 18.1553 11.353 17.7745 11.4984 17.3817C11.6968 16.8461 11.8809 16.2429 12.0699 15.6234L12.112 15.4854C12.8625 13.0283 13.8014 9.86276 14.4062 7.81281C14.6713 6.91427 15.4803 6.29018 16.4101 6.25697H18.3965C18.412 6.25697 18.4274 6.2565 18.4426 6.25558H18.5506C19.4163 6.25558 19.8473 6.49597 20.0821 6.76527C20.3358 7.05625 20.489 7.52616 20.499 8.22615C20.5194 9.64935 19.9522 11.5183 19.408 13.2625C18.9645 14.6841 18.4285 16.0403 17.7606 17.0283ZM9.46057 13.7425H8.47237C8.71799 13.4073 8.90939 13.0265 9.03196 12.6111C9.29818 11.7088 9.62885 10.5913 9.97946 9.41393L10.4637 7.80069C10.7388 6.88441 11.5822 6.25697 12.5389 6.25697H13.5271C13.2815 6.59214 13.0901 6.97292 12.9675 7.38832C12.7013 8.29062 12.3706 9.40812 12.02 10.5855L11.5358 12.1987C11.2607 13.115 10.4173 13.7425 9.46057 13.7425ZM12.5389 4.75697C12.114 4.75697 11.7024 4.8301 11.3178 4.966L11.3601 4.82742C11.5536 4.19368 11.7252 3.63124 11.9077 3.13872C12.103 2.61135 12.2926 2.21604 12.496 1.93749C12.543 1.87304 12.6742 1.75703 12.9019 1.65536C13.1203 1.55782 13.3699 1.5 13.5998 1.5C14.257 1.5 14.5532 1.70949 14.7479 1.95703C14.9935 2.26919 15.1386 2.71534 15.3226 3.3403L15.3456 3.41883C15.4638 3.82185 15.6065 4.30854 15.8398 4.75697H12.5389ZM9.46057 15.2425C9.88544 15.2425 10.2971 15.1693 10.6817 15.0334L10.6394 15.172C10.4459 15.8058 10.2743 16.3682 10.0918 16.8607C9.89649 17.3881 9.70689 17.7834 9.50353 18.0619C9.45647 18.1264 9.32531 18.2424 9.09761 18.3441C8.87915 18.4416 8.62955 18.4994 8.39969 18.4994C7.7425 18.4994 7.44631 18.2899 7.25155 18.0424C7.00595 17.7302 6.86093 17.2841 6.67694 16.6591L6.65388 16.5806C6.53568 16.1776 6.39294 15.6909 6.15967 15.2425H9.46057Z" fill="var(--fill-0, #242424)"/>
</svg>
