<svg preserveAspectRatio="none" width="100%" height="100%" overflow="visible" style="display: block;" viewBox="0 0 26.0025 23.9995" fill="none" xmlns="http://www.w3.org/2000/svg">
<path id="Shape" d="M3.9873 17.9649C4.33968 17.9771 4.58803 18.0484 4.76988 18.1409C4.96761 18.2415 5.12624 18.3871 5.26565 18.5863C5.55862 19.0049 5.72255 19.5764 5.93794 20.3274L5.96978 20.4384C6.18127 21.1744 6.4516 22.0821 7.04082 22.7872C7.67649 23.5479 8.61045 23.9995 9.96331 23.9995H18.4443C20.1675 23.9995 21.454 22.897 22.3986 21.515C23.3469 20.1274 24.0539 18.3162 24.6046 16.5705C25.2378 14.563 26.0311 12.0455 26.0017 10.02C25.9869 8.99489 25.7623 7.9745 25.0859 7.20721C24.3972 6.42599 23.3607 6.04056 22.0152 6.03461C21.6629 6.02244 21.4145 5.95109 21.2327 5.85859C21.0349 5.75801 20.8763 5.61239 20.7369 5.4132C20.4439 4.99461 20.28 4.42307 20.0646 3.67207L20.0328 3.5611C19.8213 2.8251 19.5509 1.91742 18.9617 1.21228C18.326 0.451572 17.3921 0 16.0392 0H7.55827C5.83506 0 4.54856 1.10245 3.60398 2.48451C2.65565 3.87206 1.94865 5.68327 1.39797 7.42904C0.764717 9.43654 -0.0285234 11.954 0.000789081 13.9795C0.0156249 15.0046 0.240266 16.025 0.916649 16.7923C1.60531 17.5735 2.64184 17.9589 3.9873 17.9649ZM2.82848 7.88028C3.36681 6.17372 4.02107 4.5326 4.84238 3.3309C5.66744 2.12371 6.55896 1.5 7.55827 1.5H13.4346C13.1501 1.95533 12.9176 2.48244 12.7101 3.03654C12.4714 3.67405 12.2496 4.39276 12.0203 5.13617L11.9696 5.30042C11.0601 8.24553 9.92209 12.0409 9.18956 14.4965C8.85096 15.6316 7.82799 16.4194 6.65262 16.463H3.87878L3.87253 16.4631C2.88541 16.4373 2.34973 16.1496 2.04187 15.8004C1.70143 15.4142 1.51299 14.8114 1.50063 13.9577C1.47556 12.2256 2.17154 9.96289 2.82848 7.88028ZM21.1602 20.6686C20.3351 21.8758 19.4436 22.4995 18.4443 22.4995H12.5679C12.8525 22.0442 13.0849 21.5171 13.2924 20.963C13.5312 20.3254 13.7529 19.6067 13.9822 18.8633L14.0329 18.6991C14.9424 15.754 16.0805 11.9586 16.813 9.50303C17.1516 8.36793 18.1746 7.58009 19.3499 7.53645H22.1238L22.13 7.53643C23.1171 7.56223 23.6528 7.84988 23.9607 8.19912C24.3011 8.58531 24.4896 9.18809 24.5019 10.0417C24.527 11.7739 23.831 14.0366 23.1741 16.1192C22.6357 17.8258 21.9815 19.4669 21.1602 20.6686ZM7.36023 19.8444C7.19241 19.2534 6.99421 18.5555 6.6468 17.9639L6.67766 17.963H11.1091C11.7037 17.963 12.2761 17.8394 12.7978 17.6134C12.7308 17.8316 12.6647 18.0462 12.5997 18.2565L12.5531 18.4076C12.3193 19.1652 12.1102 19.8428 11.8877 20.4369C11.6495 21.0728 11.4143 21.5612 11.1559 21.9113C10.9181 22.2334 10.5323 22.4995 9.96331 22.4995C8.98755 22.4995 8.50198 22.1965 8.19186 21.8254C7.8353 21.3987 7.6336 20.7973 7.41145 20.0241C7.39461 19.9655 7.37758 19.9056 7.36023 19.8444ZM11.1091 16.463H9.79366C10.1669 16.0234 10.4545 15.5035 10.627 14.9253C10.9498 13.8431 11.3511 12.5017 11.7766 11.0883L12.2618 9.48837C12.6134 8.32912 13.6821 7.53645 14.8935 7.53645H16.2089C15.8357 7.97607 15.548 8.49603 15.3756 9.07424C15.0528 10.1564 14.6515 11.4977 14.2259 12.9112L13.7407 14.5111C13.3892 15.6704 12.3204 16.463 11.1091 16.463ZM19.3557 6.03564L19.3249 6.03645H14.8935C14.2988 6.03645 13.7264 6.16005 13.2047 6.38613C13.2718 6.16792 13.3379 5.95328 13.4028 5.74301L13.4494 5.59199C13.6832 4.83433 13.8923 4.1567 14.1148 3.5626C14.353 2.92664 14.5882 2.43828 14.8466 2.0882C15.0844 1.76607 15.4703 1.5 16.0392 1.5C17.015 1.5 17.5006 1.80298 17.8107 2.17411C18.1672 2.60081 18.3689 3.20223 18.5911 3.97535C18.6079 4.03395 18.625 4.09392 18.6423 4.15505C18.8101 4.74604 19.0083 5.44403 19.3557 6.03564Z" fill="var(--fill-0, #242424)"/>
</svg>
