<svg preserveAspectRatio="none" width="100%" height="100%" overflow="visible" style="display: block;" viewBox="0 0 23.9914 26.389" fill="none" xmlns="http://www.w3.org/2000/svg">
<path id="Shape" d="M7.24634 2.06317L2.31488 5.04607C0.877959 5.91522 0 7.47234 0 9.15167V17.2343C0 18.9131 0.877402 20.4698 2.31359 21.3391L2.33106 21.3497C3.14525 21.7656 4.12363 21.7234 4.90214 21.2291L10.5703 17.6297L9.51102 16.9885C8.07483 16.1192 7.19743 14.5625 7.19743 12.8837L7.19727 2.70023C7.19727 2.48509 7.21391 2.27221 7.24634 2.06317ZM12.4268 18.2277L5.70624 22.4953C5.4444 22.6616 5.16823 22.7955 4.88329 22.8968L9.50712 25.6956C11.0346 26.6202 12.9491 26.6202 14.4765 25.6956L21.6739 21.339C23.0589 20.5007 23.9242 19.0231 23.9842 17.4133C23.9034 16.6719 23.472 16.0072 22.8148 15.6337L16.7901 12.2095V12.8821C16.7901 14.5609 15.9127 16.1176 14.4765 16.9869L12.4268 18.2277ZM23.9914 9.15176V14.6179C23.8541 14.5129 23.7088 14.4164 23.556 14.3296L16.7007 10.4334L14.4791 9.08959C12.9523 8.16607 11.0391 8.16607 9.51232 9.08959L8.69727 9.58259V2.70023C8.69727 1.81225 9.14119 0.984332 9.87785 0.492619C11.3365 -0.225214 13.0719 -0.15854 14.4791 0.692643L21.6766 5.04616C23.1135 5.91531 23.9914 7.47244 23.9914 9.15176Z" fill="var(--fill-0, #242424)"/>
</svg>
