<svg preserveAspectRatio="none" width="100%" height="100%" overflow="visible" style="display: block;" viewBox="0 0 7.69998 12.9408" fill="none" xmlns="http://www.w3.org/2000/svg">
<g id="Shape">
<path d="M5.62946 0L5.55081 0.0475682C5.55081 0.0475682 6.90381 0.140733 7.34998 0.140733L7.69998 2.7909L5.94998 4.54088L4.19999 5.75725V7.15986C4.19999 8.1395 4.71199 9.0479 5.55006 9.55518L7.39235 10.6703L3.49999 12.9408H2.74926L1.35007 12.0939C0.511999 11.5866 0 10.6782 0 9.69859V4.98207C0 4.00212 0.512324 3.09348 1.35083 2.5863L5.55081 0.0458471C5.57684 0.0301049 5.60306 0.0148225 5.62946 0Z" fill="url(#paint0_radial_12089_80869)"/>
<path d="M5.62946 0L5.55081 0.0475682C5.55081 0.0475682 6.90381 0.140733 7.34998 0.140733L7.69998 2.7909L5.94998 4.54088L4.19999 5.75725V7.15986C4.19999 8.1395 4.71199 9.0479 5.55006 9.55518L7.39235 10.6703L3.49999 12.9408H2.74926L1.35007 12.0939C0.511999 11.5866 0 10.6782 0 9.69859V4.98207C0 4.00212 0.512324 3.09348 1.35083 2.5863L5.55081 0.0458471C5.57684 0.0301049 5.60306 0.0148225 5.62946 0Z" fill="url(#paint1_linear_12089_80869)"/>
</g>
<defs>
<radialGradient id="paint0_radial_12089_80869" cx="0" cy="0" r="1" gradientTransform="matrix(-3.97798 9.86507 -7.97899 -3.14869 5.97525 4.16487)" gradientUnits="userSpaceOnUse">
<stop offset="0.206732" stop-color="#45D586"/>
<stop offset="0.875628" stop-color="#128245"/>
</radialGradient>
<linearGradient id="paint1_linear_12089_80869" x1="4.94479" y1="11.5873" x2="4.35037" y2="10.4197" gradientUnits="userSpaceOnUse">
<stop offset="0.9999" stop-color="#0F773F"/>
<stop offset="1" stop-color="#0078D4" stop-opacity="0"/>
</linearGradient>
</defs>
</svg>
