<svg preserveAspectRatio="none" width="100%" height="100%" overflow="visible" style="display: block;" viewBox="0 0 13.7507 14.4401" fill="none" xmlns="http://www.w3.org/2000/svg">
<g id="Shape">
<path d="M13.7507 0H5.73041C3.43891 0 2.06401 3.02777 1.14741 6.05553C0.0614821 9.64265 -1.35948 14.4401 2.75146 14.4401H6.21482C7.24955 14.4401 8.15794 13.7559 8.44239 12.7611C9.04453 10.6551 10.0997 6.98146 10.9285 4.18489C11.3497 2.76367 11.7005 1.5431 12.239 0.783003C12.5409 0.356863 13.044 0 13.7507 0Z" fill="url(#paint0_linear_12089_80739)"/>
<path d="M13.7507 0H5.73041C3.43891 0 2.06401 3.02777 1.14741 6.05553C0.0614821 9.64265 -1.35948 14.4401 2.75146 14.4401H6.21482C7.24955 14.4401 8.15794 13.7559 8.44239 12.7611C9.04453 10.6551 10.0997 6.98146 10.9285 4.18489C11.3497 2.76367 11.7005 1.5431 12.239 0.783003C12.5409 0.356863 13.044 0 13.7507 0Z" fill="url(#paint1_linear_12089_80739)"/>
</g>
<defs>
<linearGradient id="paint0_linear_12089_80739" x1="5.37822" y1="-4.03219" x2="9.20241" y2="15.0652" gradientUnits="userSpaceOnUse">
<stop offset="0.253977" stop-color="#EA348E"/>
<stop offset="0.55966" stop-color="#FD6544"/>
<stop offset="0.844539" stop-color="#FFB152"/>
</linearGradient>
<linearGradient id="paint1_linear_12089_80739" x1="6.82118" y1="-0.563481" x2="6.84545" y2="14.4402" gradientUnits="userSpaceOnUse">
<stop stop-color="#F99ACD"/>
<stop offset="0.246674" stop-color="#F44C6D" stop-opacity="0"/>
</linearGradient>
</defs>
</svg>
