<svg preserveAspectRatio="none" width="100%" height="100%" overflow="visible" style="display: block;" viewBox="0 0 19.5999 20.2975" fill="none" xmlns="http://www.w3.org/2000/svg">
<g id="Shape">
<path d="M16.8983 5.88933L8.49831 0.808377C6.7716 -0.236069 4.62147 -0.268424 2.86853 0.71131L2.70165 0.812247C1.02465 1.82663 0 3.64392 0 5.60385V12.2425L2.70165 10.6084C4.48356 9.53055 6.7164 9.53055 8.49831 10.6084L16.8983 15.6893C18.5228 16.672 19.5352 18.4081 19.5969 20.2975C19.5989 20.2365 19.5999 20.1754 19.5999 20.1141V10.6809C19.5999 8.72101 18.5753 6.90371 16.8983 5.88933Z" fill="url(#paint0_radial_12089_80619)"/>
<path d="M16.8983 5.88933L8.49831 0.808377C6.7716 -0.236069 4.62147 -0.268424 2.86853 0.71131L2.70165 0.812247C1.02465 1.82663 0 3.64392 0 5.60385V12.2425L2.70165 10.6084C4.48356 9.53055 6.7164 9.53055 8.49831 10.6084L16.8983 15.6893C18.5228 16.672 19.5352 18.4081 19.5969 20.2975C19.5989 20.2365 19.5999 20.1754 19.5999 20.1141V10.6809C19.5999 8.72101 18.5753 6.90371 16.8983 5.88933Z" fill="url(#paint1_linear_12089_80619)" fill-opacity="0.3"/>
</g>
<defs>
<radialGradient id="paint0_radial_12089_80619" cx="0" cy="0" r="1" gradientTransform="matrix(-19.6 -5.59976 4.56414 -46.5888 19.6 17.8487)" gradientUnits="userSpaceOnUse">
<stop offset="0.0584996" stop-color="#42B8FB"/>
<stop offset="0.377639" stop-color="#2EAEFF"/>
<stop offset="1" stop-color="#016ED4"/>
</radialGradient>
<linearGradient id="paint1_linear_12089_80619" x1="0.727949" y1="2.88508" x2="6.95065" y2="3.15564" gradientUnits="userSpaceOnUse">
<stop/>
<stop offset="1" stop-opacity="0"/>
</linearGradient>
</defs>
</svg>
