<svg preserveAspectRatio="none" width="100%" height="100%" overflow="visible" style="display: block;" viewBox="0 0 15.3999 25.882" fill="none" xmlns="http://www.w3.org/2000/svg">
<g id="Shape">
<path d="M11.2589 0L11.1016 0.0951375C11.1016 0.0951375 13.8076 0.281469 14.6999 0.281469L15.3999 5.58187L11.9 9.08186L8.39997 11.5146V14.3199C8.39997 16.2792 9.42397 18.096 11.1001 19.1106L14.7847 21.3409L6.99998 25.882H5.49852L2.70015 24.1881C1.024 23.1735 0 21.3567 0 19.3974V9.96425C0 8.00433 1.02465 6.18703 2.70165 5.17265L11.1016 0.0916953C11.1537 0.0602105 11.2061 0.0296454 11.2589 0Z" fill="url(#paint0_linear_12089_80771)"/>
<path d="M11.2589 0L11.1016 0.0951375C11.1016 0.0951375 13.8076 0.281469 14.6999 0.281469L15.3999 5.58187L11.9 9.08186L8.39997 11.5146V14.3199C8.39997 16.2792 9.42397 18.096 11.1001 19.1106L14.7847 21.3409L6.99998 25.882H5.49852L2.70015 24.1881C1.024 23.1735 0 21.3567 0 19.3974V9.96425C0 8.00433 1.02465 6.18703 2.70165 5.17265L11.1016 0.0916953C11.1537 0.0602105 11.2061 0.0296454 11.2589 0Z" fill="url(#paint1_linear_12089_80771)"/>
<path d="M11.2589 0L11.1016 0.0951375C11.1016 0.0951375 13.8076 0.281469 14.6999 0.281469L15.3999 5.58187L11.9 9.08186L8.39997 11.5146V14.3199C8.39997 16.2792 9.42397 18.096 11.1001 19.1106L14.7847 21.3409L6.99998 25.882H5.49852L2.70015 24.1881C1.024 23.1735 0 21.3567 0 19.3974V9.96425C0 8.00433 1.02465 6.18703 2.70165 5.17265L11.1016 0.0916953C11.1537 0.0602105 11.2061 0.0296454 11.2589 0Z" fill="url(#paint2_linear_12089_80771)" fill-opacity="0.3"/>
</g>
<defs>
<linearGradient id="paint0_linear_12089_80771" x1="9.44996" y1="23.6072" x2="5.95364" y2="4.44293" gradientUnits="userSpaceOnUse">
<stop offset="0.135417" stop-color="#0357D6"/>
<stop offset="0.582671" stop-color="#33B4F1"/>
<stop offset="1" stop-color="#4DD3FF"/>
</linearGradient>
<linearGradient id="paint1_linear_12089_80771" x1="5.77498" y1="0.507225" x2="4.28748" y2="9.7822" gradientUnits="userSpaceOnUse">
<stop stop-color="#8FF8FF"/>
<stop offset="1" stop-color="#6DD8FF" stop-opacity="0"/>
</linearGradient>
<linearGradient id="paint2_linear_12089_80771" x1="7.69996" y1="19.8015" x2="9.3625" y2="23.914" gradientUnits="userSpaceOnUse">
<stop stop-opacity="0"/>
<stop offset="1"/>
</linearGradient>
</defs>
</svg>
