<svg preserveAspectRatio="none" width="100%" height="100%" overflow="visible" style="display: block;" viewBox="0 0 16.2508 17.4576" fill="none" xmlns="http://www.w3.org/2000/svg">
<g id="Shape">
<path d="M0 17.4576H9.47846C12.1866 17.4576 13.8115 13.7971 14.8947 10.1367C16.1781 5.79997 17.8574 0 12.999 0H8.9123C7.68723 0 6.61322 0.813972 6.28348 1.99383C5.57361 4.53383 4.31943 9.00124 3.33529 12.3982C2.83751 14.1164 2.42287 15.5921 1.78653 16.511C1.42977 17.0262 0.835165 17.4576 0 17.4576Z" fill="url(#paint0_radial_12089_80683)"/>
<path d="M0 17.4576H9.47846C12.1866 17.4576 13.8115 13.7971 14.8947 10.1367C16.1781 5.79997 17.8574 0 12.999 0H8.9123C7.68723 0 6.61322 0.813972 6.28348 1.99383C5.57361 4.53383 4.31943 9.00124 3.33529 12.3982C2.83751 14.1164 2.42287 15.5921 1.78653 16.511C1.42977 17.0262 0.835165 17.4576 0 17.4576Z" fill="url(#paint1_linear_12089_80683)"/>
</g>
<defs>
<radialGradient id="paint0_radial_12089_80683" cx="0" cy="0" r="1" gradientTransform="matrix(-8.28428 21.5517 -25.0804 -10.6821 13.4859 -1.70922)" gradientUnits="userSpaceOnUse">
<stop offset="0.154405" stop-color="#2771D8"/>
<stop offset="0.678875" stop-color="#14B1FF"/>
<stop offset="0.931138" stop-color="#16BFDF"/>
</radialGradient>
<linearGradient id="paint1_linear_12089_80683" x1="14.1709" y1="-0.665495" x2="13.0168" y2="6.06008" gradientUnits="userSpaceOnUse">
<stop offset="0.0581535" stop-color="#14B1FF"/>
<stop offset="0.708063" stop-color="#2976DB" stop-opacity="0"/>
</linearGradient>
</defs>
</svg>
