<svg preserveAspectRatio="none" width="100%" height="100%" overflow="visible" style="display: block;" viewBox="0 0 43.9971 40.0005" fill="none" xmlns="http://www.w3.org/2000/svg">
<path id="Shape" d="M7.16833 30.2208C8.35674 30.2605 8.92744 30.6859 9.32301 31.2307C9.81162 31.9037 10.0873 32.8223 10.4534 34.0421L10.5065 34.219C10.8654 35.4127 11.326 36.8921 12.3204 38.0403C13.3897 39.2749 14.9474 40.0005 17.1943 40.0005H31.3685C34.2509 40.0005 36.4002 38.1437 37.9767 35.8206C39.5604 33.4868 40.7414 30.44 41.6616 27.5022C42.7203 24.1221 44.0447 19.8882 43.9958 16.4831C43.971 14.7607 43.5964 13.048 42.4689 11.7597C41.3105 10.4363 39.5601 9.78678 37.2836 9.78678H37.1152C37.0818 9.78411 37.048 9.78275 37.014 9.78275C35.6986 9.78275 35.0897 9.34212 34.6741 8.76976C34.1855 8.09682 33.9098 7.1782 33.5437 5.95836L33.4906 5.78149C33.1317 4.58775 32.6711 3.10834 31.6767 1.96022C30.6074 0.725548 29.0497 0 26.8028 0H12.6286C9.74599 0 7.59677 1.85733 6.02029 4.18097C4.43659 6.51527 3.25561 9.56278 2.33546 12.5013C1.27675 15.8824 -0.0476119 20.1172 0.00131687 23.5231C0.0260653 25.2458 0.400608 26.9588 1.52812 28.2473C2.68646 29.571 4.43685 30.2208 6.71344 30.2208H7.16833ZM4.72123 13.2484C5.62114 10.3745 6.71522 7.60958 8.0891 5.58456C9.47021 3.54888 10.9611 2.5 12.6286 2.5H22.4647C21.9834 3.2706 21.5911 4.1653 21.241 5.10695C20.8422 6.17972 20.4718 7.3892 20.0885 8.64095L20.0038 8.91741C18.48 13.8881 16.5724 20.2973 15.3485 24.4306C14.7866 26.3283 13.0773 27.6465 11.1134 27.7177H6.9831C6.95359 27.7177 6.92433 27.7188 6.89534 27.7208H6.71344C4.90856 27.7208 3.95055 27.2193 3.40949 26.601C2.8376 25.9475 2.52175 24.9277 2.50106 23.4872C2.4591 20.5667 3.62366 16.7535 4.72123 13.2484ZM35.9081 34.4167C34.527 36.4518 33.0361 37.5005 31.3685 37.5005H21.5327C22.0138 36.7302 22.406 35.8359 22.756 34.8947C23.1548 33.8222 23.5253 32.613 23.9086 31.3616L23.9933 31.0852C25.5169 26.1161 27.4244 19.7089 28.6484 15.5766C29.2263 13.6254 31.0173 12.2868 33.0508 12.2868H37.2836C39.0886 12.2868 40.0467 12.7882 40.5877 13.4063C41.1595 14.0596 41.4753 15.079 41.496 16.519C41.538 19.4386 40.3735 23.2507 39.2759 26.755C38.376 29.6281 37.2819 32.3923 35.9081 34.4167ZM18.9981 27.7177H16.3522C16.9775 26.9813 17.4586 26.1097 17.7456 25.1404C18.2866 23.3135 18.9606 21.0436 19.6757 18.6509L20.6115 15.5442C21.1947 13.608 22.9779 12.2827 25.0001 12.2827H27.6506C27.0225 13.0205 26.5393 13.8945 26.2513 14.8667C25.7103 16.6932 25.0362 18.9627 24.3211 21.3548L23.3866 24.4566C22.8033 26.3927 21.0201 27.7177 18.9981 27.7177ZM25.0001 9.78275C24.0044 9.78275 23.0462 9.99065 22.1735 10.3707C22.2478 10.1275 22.3213 9.88717 22.394 9.65012L22.4719 9.39573C22.8627 8.12027 23.2123 6.97889 23.5843 5.97808C23.9826 4.90665 24.3764 4.08286 24.8094 3.49194C25.209 2.94661 25.8545 2.5 26.8028 2.5C28.4476 2.5 29.2676 2.9973 29.7869 3.59689C30.3812 4.28303 30.72 5.24931 31.0964 6.50126C31.125 6.59621 31.1539 6.69348 31.1833 6.79268C31.461 7.72737 31.7897 8.83365 32.3524 9.78275L25.0001 9.78275ZM18.9981 30.2177C19.9936 30.2177 20.9517 30.0099 21.8242 29.6299C21.7497 29.8738 21.676 30.1147 21.6031 30.3523L21.5252 30.6066C21.1345 31.8817 20.7848 33.0229 20.4128 34.0234C20.0145 35.0945 19.6207 35.9181 19.1878 36.5088C18.7883 37.0539 18.1427 37.5005 17.1943 37.5005C15.5495 37.5005 14.7294 37.0032 14.2102 36.4036C13.6159 35.7175 13.2771 34.7512 12.9007 33.4992C12.8721 33.4043 12.8432 33.307 12.8137 33.2078C12.536 32.2731 12.2074 31.1668 11.6447 30.2177H18.9981Z" fill="var(--fill-0, #242424)"/>
</svg>
