<svg preserveAspectRatio="none" width="100%" height="100%" overflow="visible" style="display: block;" viewBox="0 0 21.9999 36.9758" fill="none" xmlns="http://www.w3.org/2000/svg">
<g id="Shape">
<path d="M16.0842 0C15.9489 0.0818397 20.1057 0.402116 20.9999 0.402116L21.9999 7.97444L17 12.9746L12 16.4502V20.4579C12 23.257 13.4628 25.8525 15.8573 27.302L21.121 30.4883L9.99998 36.9758H7.85504L3.85735 34.5559C1.46285 33.1064 0 30.5109 0 27.7118V14.2353C0 11.4352 1.46378 8.83899 3.8595 7.38982L15.8595 0.130999C15.9338 0.0860187 16.0087 0.0423524 16.0842 0Z" fill="url(#paint0_linear_12089_80581)"/>
<path d="M16.0842 0C15.9489 0.0818397 20.1057 0.402116 20.9999 0.402116L21.9999 7.97444L17 12.9746L12 16.4502V20.4579C12 23.257 13.4628 25.8525 15.8573 27.302L21.121 30.4883L9.99998 36.9758H7.85504L3.85735 34.5559C1.46285 33.1064 0 30.5109 0 27.7118V14.2353C0 11.4352 1.46378 8.83899 3.8595 7.38982L15.8595 0.130999C15.9338 0.0860187 16.0087 0.0423524 16.0842 0Z" fill="url(#paint1_linear_12089_80581)"/>
<path d="M16.0842 0C15.9489 0.0818397 20.1057 0.402116 20.9999 0.402116L21.9999 7.97444L17 12.9746L12 16.4502V20.4579C12 23.257 13.4628 25.8525 15.8573 27.302L21.121 30.4883L9.99998 36.9758H7.85504L3.85735 34.5559C1.46285 33.1064 0 30.5109 0 27.7118V14.2353C0 11.4352 1.46378 8.83899 3.8595 7.38982L15.8595 0.130999C15.9338 0.0860187 16.0087 0.0423524 16.0842 0Z" fill="url(#paint2_linear_12089_80581)" fill-opacity="0.3"/>
</g>
<defs>
<linearGradient id="paint0_linear_12089_80581" x1="13.4999" y1="33.726" x2="8.50479" y2="6.34739" gradientUnits="userSpaceOnUse">
<stop offset="0.135417" stop-color="#0357D6"/>
<stop offset="0.582671" stop-color="#33B4F1"/>
<stop offset="1" stop-color="#4DD3FF"/>
</linearGradient>
<linearGradient id="paint1_linear_12089_80581" x1="8.24997" y1="0.724639" x2="6.12479" y2="13.9751" gradientUnits="userSpaceOnUse">
<stop stop-color="#8FF8FF"/>
<stop offset="1" stop-color="#6DD8FF" stop-opacity="0"/>
</linearGradient>
<linearGradient id="paint2_linear_12089_80581" x1="10.9999" y1="28.2891" x2="13.3752" y2="34.1643" gradientUnits="userSpaceOnUse">
<stop stop-opacity="0"/>
<stop offset="1"/>
</linearGradient>
</defs>
</svg>
