<svg preserveAspectRatio="none" width="100%" height="100%" overflow="visible" style="display: block;" viewBox="0 0 10.0004 10.5035" fill="none" xmlns="http://www.w3.org/2000/svg">
<g id="Shape">
<path d="M10.0004 0H4.16755C2.50102 0 1.50109 2.20235 0.834479 4.40471C0.044714 7.01392 -0.988711 10.5035 2.00105 10.5035H4.69024C5.34194 10.5035 5.91403 10.0727 6.09306 9.44608C6.52129 7.94725 7.32308 5.15282 7.94795 3.04403C8.25428 2.01026 8.50944 1.12243 8.90103 0.569545C9.12058 0.259577 9.48649 0 10.0004 0Z" fill="url(#paint0_linear_12089_80881)"/>
<path d="M10.0004 0H4.16755C2.50102 0 1.50109 2.20235 0.834479 4.40471C0.044714 7.01392 -0.988711 10.5035 2.00105 10.5035H4.69024C5.34194 10.5035 5.91403 10.0727 6.09306 9.44608C6.52129 7.94725 7.32308 5.15282 7.94795 3.04403C8.25428 2.01026 8.50944 1.12243 8.90103 0.569545C9.12058 0.259577 9.48649 0 10.0004 0Z" fill="url(#paint1_linear_12089_80881)"/>
</g>
<defs>
<linearGradient id="paint0_linear_12089_80881" x1="3.03148" y1="1.24976e-07" x2="4.91406" y2="11.0823" gradientUnits="userSpaceOnUse">
<stop offset="0.289817" stop-color="#4AA647"/>
<stop offset="0.662336" stop-color="#7DB22E"/>
<stop offset="0.950002" stop-color="#A9D356"/>
</linearGradient>
<linearGradient id="paint1_linear_12089_80881" x1="4.54577" y1="-6.90184e-09" x2="5.00014" y2="10.5035" gradientUnits="userSpaceOnUse">
<stop stop-color="#B5DA6B"/>
<stop offset="0.166667" stop-color="#5DAB3F" stop-opacity="0"/>
</linearGradient>
</defs>
</svg>
