<svg preserveAspectRatio="none" width="100%" height="100%" overflow="visible" style="display: block;" viewBox="0 0 39.9999 43.9975" fill="none" xmlns="http://www.w3.org/2000/svg">
<path id="Shape" d="M12.0651 3.44773L3.8595 8.41133C1.46378 9.86051 0 12.4568 0 15.2568V28.7333C0 31.2005 1.1365 33.5095 3.04573 35.015C4.82516 35.9737 6.986 35.9155 8.71482 34.8517L17.6045 29.3812L15.8573 28.3235C13.4628 26.8741 12 24.2785 12 21.4794V17.6169H11.9863V4.48492C11.9863 4.13464 12.0131 3.78807 12.0651 3.44773ZM21.4374 29.9579L10.025 36.9808C9.312 37.4196 8.54793 37.7396 7.76034 37.9404L15.8565 42.8413C18.4032 44.3829 21.5951 44.3829 24.1417 42.8413L36.1417 35.5773C38.2965 34.2729 39.6969 32.0404 39.9556 29.5666C39.769 28.2229 38.9862 27.0201 37.8053 26.3088L27.9991 20.4023V21.4768C27.9991 24.2759 26.5363 26.8714 24.1418 28.3209L21.4374 29.9579ZM39.9999 15.2591V24.8148C39.7184 24.5775 39.4163 24.3607 39.0952 24.1673L26.4321 16.5399L26.4313 16.5412L24.1404 15.1555C21.5948 13.6157 18.4051 13.6157 15.8595 15.1555L14.4863 15.9861V4.48492C14.4863 2.97894 15.264 1.58094 16.5409 0.786406C18.9577 -0.373194 21.8173 -0.250372 24.1404 1.15487L36.1404 8.41369C38.5361 9.86286 39.9999 12.4591 39.9999 15.2591Z" fill="var(--fill-0, #242424)"/>
</svg>
