<svg preserveAspectRatio="none" width="100%" height="100%" overflow="visible" style="display: block;" viewBox="0 0 29.9958 27.9974" fill="none" xmlns="http://www.w3.org/2000/svg">
<path id="Shape" d="M4.94439 20.9579C5.32926 20.9695 5.58863 21.0484 5.77135 21.1443C5.96738 21.2473 6.13029 21.3987 6.27881 21.6177C6.5988 22.0897 6.77964 22.7403 7.02654 23.6285L7.05894 23.7451C7.29673 24.5993 7.60688 25.6812 8.29105 26.5264C9.03847 27.4497 10.1418 27.9974 11.7202 27.9974H21.303C23.3326 27.9974 24.8264 26.6735 25.9019 25.07C26.9844 23.456 27.7876 21.3559 28.4108 19.343L28.4117 19.3401C29.1253 17.0349 30.0283 14.1175 29.9949 11.7632C29.978 10.5708 29.7221 9.36081 28.9281 8.44295C28.1077 7.49463 26.874 7.03948 25.3021 7.03948H25.0514C24.6665 7.02788 24.4072 6.949 24.2245 6.85305C24.0284 6.75012 23.8655 6.59867 23.717 6.37963C23.397 5.90767 23.2162 5.25707 22.9693 4.36883L22.9369 4.25232C22.6991 3.39803 22.3889 2.31616 21.7048 1.47097C20.9573 0.547639 19.854 0 18.2756 0H8.69281C6.66325 0 5.16943 1.32383 4.09392 2.92738C3.01138 4.54142 2.20818 6.64143 1.58506 8.65438L1.58416 8.65728C0.870564 10.9625 -0.0325333 13.8799 0.000901759 16.2342C0.0178353 17.4266 0.273703 18.6366 1.06772 19.5544C1.88808 20.5027 3.12179 20.9579 4.6937 20.9579H4.94439ZM3.49561 9.2458C4.10299 7.2837 4.8379 5.40866 5.75492 4.04142C6.67896 2.6637 7.64613 2 8.69281 2H15.0802C14.8053 2.4862 14.5754 3.02897 14.369 3.59065C14.0979 4.3283 13.8463 5.15925 13.5875 6.01417L13.53 6.20417C12.509 9.57303 11.2334 13.9076 10.4051 16.7365C10.0285 18.0229 8.86882 18.9154 7.53682 18.9564H4.84516C4.8268 18.9564 4.80855 18.9569 4.79043 18.9579H4.6937C3.50623 18.9579 2.90885 18.6257 2.58029 18.2459C2.22538 17.8357 2.01449 17.1767 2.0007 16.2058C1.9727 14.2345 2.75153 11.6495 3.49561 9.2458ZM24.2409 23.956C23.3169 25.3337 22.3497 25.9974 21.303 25.9974H14.9157C15.1905 25.5112 15.4204 24.9684 15.6268 24.4067C15.8979 23.6691 16.1495 22.8381 16.4083 21.9832L16.4659 21.7932C17.4868 18.4243 18.7624 14.0898 19.5907 11.2609C19.9673 9.97449 21.127 9.08192 22.459 9.04095H25.1507C25.169 9.04095 25.1873 9.04046 25.2054 9.03948H25.3021C26.4896 9.03948 27.087 9.37163 27.4155 9.75143C27.7704 10.1617 27.9813 10.8206 27.9951 11.7916C28.0231 13.7628 27.2443 16.3479 26.5002 18.7516C25.8928 20.7137 25.1579 22.5887 24.2409 23.956ZM12.9301 18.9564H11.4864C11.8576 18.4702 12.1451 17.9114 12.3246 17.2984C12.6864 16.0627 13.1332 14.5409 13.6066 12.9387L14.1106 11.2448C14.4996 9.93736 15.7016 9.04095 17.0657 9.04095H18.5094C18.1382 9.52721 17.8507 10.086 17.6712 10.6989C17.3095 11.9347 16.8626 13.4565 16.3892 15.0587L15.8852 16.7525C15.4962 18.06 14.2942 18.9564 12.9301 18.9564ZM17.0657 7.04095C16.4375 7.04095 15.8301 7.15627 15.267 7.36946C15.3267 7.17152 15.3858 6.97629 15.444 6.78421L15.4963 6.61165C15.7609 5.73795 15.9961 4.96103 16.2462 4.28055C16.514 3.55179 16.775 3.00275 17.0561 2.6146C17.3036 2.27298 17.6959 2 18.2756 2C19.3284 2 19.829 2.33248 20.1502 2.72933C20.5347 3.20431 20.758 3.88269 21.0101 4.78864C21.0293 4.85734 21.0486 4.92792 21.0685 5.00006C21.2414 5.62928 21.4471 6.37752 21.7895 7.04095H17.0657ZM12.9301 20.9564C13.5583 20.9564 14.1657 20.8411 14.7288 20.6279C14.6691 20.8259 14.61 21.0211 14.5518 21.2132L14.4996 21.3857C14.235 22.2594 13.9997 23.0364 13.7496 23.7168C13.4818 24.4456 13.2209 24.9946 12.9397 25.3828C12.6922 25.7244 12.2999 25.9974 11.7202 25.9974C10.6674 25.9974 10.1668 25.6649 9.84557 25.268C9.46108 24.7931 9.23786 24.1147 8.98569 23.2087C8.96656 23.14 8.94717 23.0695 8.92734 22.9973C8.7544 22.3681 8.54875 21.6199 8.20635 20.9564H12.9301Z" fill="var(--fill-0, #242424)"/>
</svg>
