<svg preserveAspectRatio="none" width="100%" height="100%" overflow="visible" style="display: block;" viewBox="0 0 7.69998 12.9408" fill="none" xmlns="http://www.w3.org/2000/svg">
<g id="Shape">
<path d="M5.62946 0L5.55081 0.0475682C5.42571 0.123237 5.30788 0.207842 5.19792 0.300286L5.42473 0.140733H7.34998L7.69998 2.7909L5.94998 4.54088L4.19999 5.75725V7.15986C4.19999 8.1395 4.71199 9.0479 5.55006 9.55518L7.39235 10.6703L3.49999 12.9408H2.74926L1.35007 12.0939C0.511999 11.5866 0 10.6782 0 9.69859V4.98207C0 4.00212 0.512324 3.09348 1.35083 2.58629L5.55081 0.0458471C5.57684 0.0301049 5.60306 0.0148225 5.62946 0Z" fill="url(#paint0_linear_12089_80791)"/>
<path d="M5.62946 0L5.55081 0.0475682C5.42571 0.123237 5.30788 0.207842 5.19792 0.300286L5.42473 0.140733H7.34998L7.69998 2.7909L5.94998 4.54088L4.19999 5.75725V7.15986C4.19999 8.1395 4.71199 9.0479 5.55006 9.55518L7.39235 10.6703L3.49999 12.9408H2.74926L1.35007 12.0939C0.511999 11.5866 0 10.6782 0 9.69859V4.98207C0 4.00212 0.512324 3.09348 1.35083 2.58629L5.55081 0.0458471C5.57684 0.0301049 5.60306 0.0148225 5.62946 0Z" fill="url(#paint1_linear_12089_80791)"/>
<path d="M5.62946 0L5.55081 0.0475682C5.42571 0.123237 5.30788 0.207842 5.19792 0.300286L5.42473 0.140733H7.34998L7.69998 2.7909L5.94998 4.54088L4.19999 5.75725V7.15986C4.19999 8.1395 4.71199 9.0479 5.55006 9.55518L7.39235 10.6703L3.49999 12.9408H2.74926L1.35007 12.0939C0.511999 11.5866 0 10.6782 0 9.69859V4.98207C0 4.00212 0.512324 3.09348 1.35083 2.58629L5.55081 0.0458471C5.57684 0.0301049 5.60306 0.0148225 5.62946 0Z" fill="url(#paint2_linear_12089_80791)" fill-opacity="0.3"/>
</g>
<defs>
<linearGradient id="paint0_linear_12089_80791" x1="4.72498" y1="11.8034" x2="2.97686" y2="2.22143" gradientUnits="userSpaceOnUse">
<stop offset="0.135417" stop-color="#0357D6"/>
<stop offset="0.582671" stop-color="#33B4F1"/>
<stop offset="1" stop-color="#4DD3FF"/>
</linearGradient>
<linearGradient id="paint1_linear_12089_80791" x1="2.88749" y1="0.25361" x2="2.14376" y2="4.89105" gradientUnits="userSpaceOnUse">
<stop stop-color="#8FF8FF"/>
<stop offset="1" stop-color="#6DD8FF" stop-opacity="0"/>
</linearGradient>
<linearGradient id="paint2_linear_12089_80791" x1="3.84998" y1="9.90063" x2="4.68123" y2="11.9569" gradientUnits="userSpaceOnUse">
<stop stop-opacity="0"/>
<stop offset="1"/>
</linearGradient>
</defs>
</svg>
