<svg preserveAspectRatio="none" width="100%" height="100%" overflow="visible" style="display: block;" viewBox="0 0 11.2513 11.4303" fill="none" xmlns="http://www.w3.org/2000/svg">
<g id="Shape">
<path d="M0 11.4303H6.56244C8.43743 11.4303 9.56242 9.03363 10.3124 6.63696C11.201 3.79751 12.3636 0 8.99992 0H6.13871C5.30672 0 4.57478 0.546259 4.33896 1.34413C3.84553 3.01355 2.98532 5.91067 2.3092 8.11769C1.96456 9.24268 1.67748 10.2088 1.23691 10.8105C0.989903 11.1478 0.57823 11.4303 0 11.4303Z" fill="url(#paint0_radial_12089_80819)"/>
<path d="M0 11.4303H6.56244C8.43743 11.4303 9.56242 9.03363 10.3124 6.63696C11.201 3.79751 12.3636 0 8.99992 0H6.13871C5.30672 0 4.57478 0.546259 4.33896 1.34413C3.84553 3.01355 2.98532 5.91067 2.3092 8.11769C1.96456 9.24268 1.67748 10.2088 1.23691 10.8105C0.989903 11.1478 0.57823 11.4303 0 11.4303Z" fill="url(#paint1_linear_12089_80819)"/>
</g>
<defs>
<radialGradient id="paint0_radial_12089_80819" cx="0" cy="0" r="1" gradientTransform="matrix(-5.98427 12.0891 -14.8737 -7.29161 9.45129 -0.658778)" gradientUnits="userSpaceOnUse">
<stop stop-color="#6462E4"/>
<stop offset="0.554591" stop-color="#6462E4"/>
<stop offset="1" stop-color="#A071EE"/>
</radialGradient>
<linearGradient id="paint1_linear_12089_80819" x1="8.31511" y1="-0.548322" x2="7.60712" y2="3.29034" gradientUnits="userSpaceOnUse">
<stop stop-color="#B791F7"/>
<stop offset="1" stop-color="#A071EE" stop-opacity="0"/>
</linearGradient>
</defs>
</svg>
