<svg preserveAspectRatio="none" width="100%" height="100%" overflow="visible" style="display: block;" viewBox="0 0 16 14" fill="none" xmlns="http://www.w3.org/2000/svg">
<path id="Shape" d="M6.77889 13.9999H11.5938C12.6162 13.9999 13.3728 13.3436 13.9211 12.5283C14.4714 11.71 14.8793 10.638 15.1961 9.58747C15.5592 8.38351 16.0165 6.86674 15.9995 5.64477C15.991 5.02748 15.8622 4.40417 15.4636 3.93124C15.0503 3.44087 14.4256 3.2026 13.6254 3.2026H13.1916C12.8184 3.17148 12.4946 2.92276 12.3697 2.56318L11.936 1.31371C11.663 0.527083 10.9239 0 10.0939 0H9.23663L9.22114 6.08558e-05H4.4062C3.38378 6.08558e-05 2.62719 0.656413 2.07891 1.47169C1.52859 2.29001 1.12069 3.36198 0.803872 4.41253C0.440784 5.61649 -0.0164514 7.13326 0.000455415 8.35523C0.00899617 8.97253 0.137844 9.59583 0.536424 10.0688C0.949698 10.5591 1.57443 10.7974 2.37461 10.7974H2.8084C3.18159 10.8285 3.50544 11.0772 3.63026 11.4368L4.06399 12.6863C4.33704 13.4729 5.07612 14 5.90608 14H6.76338C6.76855 14 6.77372 14 6.77889 13.9999ZM7.77534 5.65792L8.0257 4.87203C8.15212 4.4752 8.51962 4.20589 8.93472 4.20589H9.46421C9.3917 4.33608 9.33322 4.47609 9.29105 4.62418C9.02949 5.54282 8.62995 6.94131 8.22459 8.34234L7.97431 9.12797C7.84789 9.5248 7.48039 9.79411 7.06529 9.79411H6.53579C6.6083 9.66392 6.66678 9.52391 6.70895 9.37582C6.9705 8.45723 7.37 7.05887 7.77534 5.65792ZM7.52454 10.7392C7.39824 11.1671 7.2841 11.5504 7.16311 11.8883C7.02668 12.2694 6.89317 12.5582 6.74854 12.7632C6.66221 12.8855 6.49575 12.9999 6.12413 12.9999C6.12151 12.9999 6.11889 13 6.11627 13H5.90608C5.50003 13 5.13845 12.7421 5.00486 12.3573L4.57113 11.1078C4.53341 10.9992 4.4868 10.8954 4.43229 10.7974H4.8318C4.8699 10.7974 4.9078 10.7963 4.94546 10.7941L7.06529 10.7941C7.22255 10.7941 7.37648 10.7752 7.52454 10.7392ZM11.4289 2.89218C11.4666 3.00084 11.5132 3.10455 11.5677 3.2026H11.1682C11.1301 3.2026 11.0922 3.20371 11.0545 3.2059L8.93472 3.2059C8.77745 3.2059 8.62353 3.22481 8.47546 3.26079C8.60176 2.83287 8.7159 2.4496 8.8369 2.11166C8.97332 1.73061 9.10684 1.44177 9.25146 1.23683C9.33779 1.11449 9.50425 1.00005 9.87587 1.00005L9.88372 0.999991H10.0939C10.5 0.999991 10.8616 1.25786 10.9952 1.64271L11.4289 2.89218ZM1.75748 4.70223C2.06577 3.67999 2.43925 2.7233 2.90473 2.03115C3.37224 1.33597 3.86586 1.00005 4.4062 1.00005H8.23064C8.10425 1.23835 7.99671 1.5013 7.89926 1.77348C7.76184 2.15729 7.63428 2.58978 7.50273 3.03582L7.47356 3.1347C6.89556 5.09246 6.15673 7.67597 5.75096 9.10105C5.63358 9.51329 5.25841 9.79741 4.8318 9.79741H2.37461C1.77299 9.79741 1.46751 9.62513 1.29712 9.42295C1.11203 9.20334 1.00376 8.85209 0.996696 8.34134C0.982388 7.30722 1.37998 5.95398 1.75748 4.70223ZM13.0953 11.9689C12.6278 12.664 12.1341 12.9999 11.5938 12.9999H7.76936C7.89575 12.7617 8.00329 12.4987 8.10074 12.2265C8.23816 11.8427 8.36572 11.4102 8.49727 10.9642L8.52645 10.8653C9.10445 8.90754 9.84327 6.32403 10.249 4.89895C10.3664 4.48671 10.7416 4.20259 11.1682 4.20259H13.6254C14.227 4.20259 14.5325 4.37487 14.7029 4.57705C14.888 4.79666 14.9962 5.14792 15.0033 5.65866C15.0176 6.69278 14.62 8.04602 14.2425 9.29777C13.9342 10.32 13.5608 11.2767 13.0953 11.9689Z" fill="var(--fill-0, #242424)"/>
</svg>
