<svg preserveAspectRatio="none" width="100%" height="100%" overflow="visible" style="display: block;" viewBox="0 0 25.105 18.9" fill="none" xmlns="http://www.w3.org/2000/svg">
<g id="Shape">
<path d="M16.7051 0V3.1362C16.7051 5.0955 15.6811 6.91232 14.0049 7.9269L5.60494 13.0115C3.88662 14.0516 1.74861 14.0891 0 13.1241L8.20523 18.0907C9.98788 19.1698 12.2222 19.1698 14.0049 18.0907L22.4049 13.0062C24.081 11.9916 25.105 10.1748 25.105 8.21548V5.94996L24.405 4.89998L16.7051 0Z" fill="url(#paint0_radial_12089_80603)"/>
<path d="M16.7051 0V3.1362C16.7051 5.0955 15.6811 6.91232 14.0049 7.9269L5.60494 13.0115C3.88662 14.0516 1.74861 14.0891 0 13.1241L8.20523 18.0907C9.98788 19.1698 12.2222 19.1698 14.0049 18.0907L22.4049 13.0062C24.081 11.9916 25.105 10.1748 25.105 8.21548V5.94996L24.405 4.89998L16.7051 0Z" fill="url(#paint1_linear_12089_80603)"/>
</g>
<defs>
<radialGradient id="paint0_radial_12089_80603" cx="0" cy="0" r="1" gradientTransform="matrix(21.0716 -1.50207 0.983071 13.4858 3.5698 10.952)" gradientUnits="userSpaceOnUse">
<stop offset="0.140029" stop-color="#FBFF47"/>
<stop offset="0.952721" stop-color="#54B228"/>
</radialGradient>
<linearGradient id="paint1_linear_12089_80603" x1="22.5547" y1="4.46375" x2="18.9837" y2="9.58407" gradientUnits="userSpaceOnUse">
<stop stop-color="#0C6470"/>
<stop offset="1" stop-color="#679810" stop-opacity="0"/>
</linearGradient>
</defs>
</svg>
