<svg preserveAspectRatio="none" width="100%" height="100%" overflow="visible" style="display: block;" viewBox="0 0 16 18.0029" fill="none" xmlns="http://www.w3.org/2000/svg">
<path id="Shape" d="M1.45651 3.34443L5.02576 1.20288C5.00876 1.32046 5 1.44027 5 1.56161V9.36906C5 10.2472 5.46075 11.061 6.21376 11.5128L7.09828 12.0435L2.98689 14.6211C2.51785 14.9152 1.93339 14.9233 1.46275 14.6622L1.45651 14.6584C1.40467 14.6273 1.35398 14.5948 1.30448 14.5609C1.27449 14.5389 1.24514 14.5157 1.21651 14.4913L0.896801 14.2185L0.893644 14.2222C0.328785 13.6652 0 12.8986 0 12.086V5.9169C0 4.86312 0.552896 3.8866 1.45651 3.34443ZM3.13442 15.6652L6.19927 17.5041C7.30765 18.1691 8.69235 18.1691 9.80074 17.5041L14.5435 14.6584C15.4471 14.1163 16 13.1397 16 12.086V11.9811C15.9598 11.6823 15.7861 11.4147 15.5235 11.2571L10.9993 8.54196V9.39476C10.9993 10.2555 10.5565 11.0557 9.82721 11.5129L3.51807 15.4684C3.39449 15.5458 3.2661 15.6114 3.13442 15.6652ZM16 5.9169V10.3768L9.28633 6.34773C8.49459 5.8726 7.50543 5.87255 6.71365 6.34762L6 6.77581V1.56161C6 0.921123 6.40668 0.351293 7.01238 0.143082L7.03052 0.136848C7.95138 -0.128557 8.95625 -0.00791452 9.80074 0.498775L14.5435 3.34443C15.4471 3.8866 16 4.86312 16 5.9169Z" fill="var(--fill-0, #242424)"/>
</svg>
