<svg preserveAspectRatio="none" width="100%" height="100%" overflow="visible" style="display: block;" viewBox="0 0 13.1953 22.1765" fill="none" xmlns="http://www.w3.org/2000/svg">
<g id="Shape">
<path d="M9.64708 0L9.51231 0.0815167C9.51231 0.0815167 11.8309 0.241171 12.5955 0.241171L13.1953 4.78272L10.1964 7.78162L7.19743 9.86609V12.2697C7.19743 13.9485 8.07483 15.5052 9.51102 16.3745L12.6681 18.2855L5.99786 22.1765H4.71135L2.31359 20.7251C0.877402 19.8558 0 18.2991 0 16.6203V8.53768C0 6.85836 0.877959 5.30124 2.31488 4.43209L9.51231 0.0785674C9.55691 0.0515902 9.60184 0.0254011 9.64708 0Z" fill="url(#paint0_linear_12089_80677)"/>
<path d="M9.64708 0L9.51231 0.0815167C9.51231 0.0815167 11.8309 0.241171 12.5955 0.241171L13.1953 4.78272L10.1964 7.78162L7.19743 9.86609V12.2697C7.19743 13.9485 8.07483 15.5052 9.51102 16.3745L12.6681 18.2855L5.99786 22.1765H4.71135L2.31359 20.7251C0.877402 19.8558 0 18.2991 0 16.6203V8.53768C0 6.85836 0.877959 5.30124 2.31488 4.43209L9.51231 0.0785674C9.55691 0.0515902 9.60184 0.0254011 9.64708 0Z" fill="url(#paint1_linear_12089_80677)"/>
<path d="M9.64708 0L9.51231 0.0815167C9.51231 0.0815167 11.8309 0.241171 12.5955 0.241171L13.1953 4.78272L10.1964 7.78162L7.19743 9.86609V12.2697C7.19743 13.9485 8.07483 15.5052 9.51102 16.3745L12.6681 18.2855L5.99786 22.1765H4.71135L2.31359 20.7251C0.877402 19.8558 0 18.2991 0 16.6203V8.53768C0 6.85836 0.877959 5.30124 2.31488 4.43209L9.51231 0.0785674C9.55691 0.0515902 9.60184 0.0254011 9.64708 0Z" fill="url(#paint2_linear_12089_80677)" fill-opacity="0.3"/>
</g>
<defs>
<linearGradient id="paint0_linear_12089_80677" x1="8.0971" y1="20.2274" x2="5.10137" y2="3.80683" gradientUnits="userSpaceOnUse">
<stop offset="0.135417" stop-color="#0357D6"/>
<stop offset="0.582671" stop-color="#33B4F1"/>
<stop offset="1" stop-color="#4DD3FF"/>
</linearGradient>
<linearGradient id="paint1_linear_12089_80677" x1="4.94823" y1="0.434606" x2="3.6737" y2="8.3817" gradientUnits="userSpaceOnUse">
<stop stop-color="#8FF8FF"/>
<stop offset="1" stop-color="#6DD8FF" stop-opacity="0"/>
</linearGradient>
<linearGradient id="paint2_linear_12089_80677" x1="6.59763" y1="16.9665" x2="8.02214" y2="20.4903" gradientUnits="userSpaceOnUse">
<stop stop-opacity="0"/>
<stop offset="1"/>
</linearGradient>
</defs>
</svg>
