<svg preserveAspectRatio="none" width="100%" height="100%" overflow="visible" style="display: block;" viewBox="0 0 21.511 16.1941" fill="none" xmlns="http://www.w3.org/2000/svg">
<g id="Shape">
<path d="M14.3136 0V2.6872C14.3136 4.36599 13.4362 5.92269 12 6.79202L4.80253 11.1486C3.33021 12.0398 1.49828 12.072 0 11.2451L7.03056 15.5007C8.55801 16.4253 10.4725 16.4253 11.9999 15.5007L19.1974 11.1441C20.6336 10.2748 21.511 8.71807 21.511 7.03928V5.09811L20.9112 4.19846L14.3136 0Z" fill="url(#paint0_radial_12089_80799)"/>
<path d="M14.3136 0V2.6872C14.3136 4.36599 13.4362 5.92269 12 6.79202L4.80253 11.1486C3.33021 12.0398 1.49828 12.072 0 11.2451L7.03056 15.5007C8.55801 16.4253 10.4725 16.4253 11.9999 15.5007L19.1974 11.1441C20.6336 10.2748 21.511 8.71807 21.511 7.03928V5.09811L20.9112 4.19846L14.3136 0Z" fill="url(#paint1_linear_12089_80799)"/>
</g>
<defs>
<radialGradient id="paint0_radial_12089_80799" cx="0" cy="0" r="1" gradientTransform="matrix(18.0857 -4.23752 9.84778 12.5126 2.83466 10.4757)" gradientUnits="userSpaceOnUse">
<stop offset="0.140029" stop-color="#D59DFF"/>
<stop offset="1" stop-color="#5E438F"/>
</radialGradient>
<linearGradient id="paint1_linear_12089_80799" x1="18.3536" y1="3.27343" x2="17.2931" y2="4.95899" gradientUnits="userSpaceOnUse">
<stop offset="0.9999" stop-color="#493474"/>
<stop offset="1" stop-color="#8C66BA" stop-opacity="0"/>
</linearGradient>
</defs>
</svg>
