<svg preserveAspectRatio="none" width="100%" height="100%" overflow="visible" style="display: block;" viewBox="0 0 21.9976 15.817" fill="none" xmlns="http://www.w3.org/2000/svg">
<g id="Shape">
<path d="M19.8748 4.5893L13.2749 0.629933C11.9182 -0.183958 10.2288 -0.209171 8.85147 0.554292L8.72036 0.632949C7.40271 1.42341 6.59763 2.83955 6.59763 4.36684V9.54008L8.72035 8.26665C10.1204 7.42674 11.8748 7.42674 13.2749 8.26665L19.8748 12.226C21.1513 12.9918 21.9467 14.3447 21.9952 15.817C21.9968 15.7694 21.9976 15.7218 21.9976 15.674V8.32319C21.9976 6.7959 21.1925 5.37976 19.8748 4.5893Z" fill="url(#paint0_radial_12089_80787)"/>
<path d="M19.8748 4.5893L13.2749 0.629933C11.9182 -0.183958 10.2288 -0.209171 8.85147 0.554292L8.72036 0.632949C7.40271 1.42341 6.59763 2.83955 6.59763 4.36684V9.54008L8.72035 8.26665C10.1204 7.42674 11.8748 7.42674 13.2749 8.26665L19.8748 12.226C21.1513 12.9918 21.9467 14.3447 21.9952 15.817C21.9968 15.7694 21.9976 15.7218 21.9976 15.674V8.32319C21.9976 6.7959 21.1925 5.37976 19.8748 4.5893Z" fill="url(#paint1_linear_12089_80787)" fill-opacity="0.3"/>
<path d="M9.82697e-08 15.8169C4.389e-07 15.8169 -2.4236e-07 15.8169 9.82697e-08 15.8169Z" fill="url(#paint2_radial_12089_80787)"/>
<path d="M9.82697e-08 15.8169C4.389e-07 15.8169 -2.4236e-07 15.8169 9.82697e-08 15.8169Z" fill="url(#paint3_linear_12089_80787)" fill-opacity="0.3"/>
</g>
<defs>
<radialGradient id="paint0_radial_12089_80787" cx="0" cy="0" r="1" gradientTransform="matrix(-14.9067 -3.80044 6.21702 -24.9473 21.9976 13.8245)" gradientUnits="userSpaceOnUse">
<stop offset="0.0584996" stop-color="#42B8FB"/>
<stop offset="0.377639" stop-color="#2EAEFF"/>
<stop offset="0.973958" stop-color="#016ED4"/>
</radialGradient>
<linearGradient id="paint1_linear_12089_80787" x1="6.83827" y1="1.53351" x2="11.685" y2="1.3602" gradientUnits="userSpaceOnUse">
<stop/>
<stop offset="0.213542" stop-opacity="0.53102"/>
<stop offset="0.799608" stop-opacity="0"/>
</linearGradient>
<radialGradient id="paint2_radial_12089_80787" cx="0" cy="0" r="1" gradientTransform="matrix(-14.9067 -3.80044 6.21702 -24.9473 21.9976 13.8245)" gradientUnits="userSpaceOnUse">
<stop offset="0.0584996" stop-color="#42B8FB"/>
<stop offset="0.377639" stop-color="#2EAEFF"/>
<stop offset="0.973958" stop-color="#016ED4"/>
</radialGradient>
<linearGradient id="paint3_linear_12089_80787" x1="6.83827" y1="1.53351" x2="11.685" y2="1.3602" gradientUnits="userSpaceOnUse">
<stop/>
<stop offset="0.213542" stop-opacity="0.53102"/>
<stop offset="0.799608" stop-opacity="0"/>
</linearGradient>
</defs>
</svg>
