<svg preserveAspectRatio="none" width="100%" height="100%" overflow="visible" style="display: block;" viewBox="0 0 16.1389 12.1501" fill="none" xmlns="http://www.w3.org/2000/svg">
<g id="Shape">
<path d="M10.739 0V2.01615C10.739 3.27571 10.0807 4.44367 9.00315 5.09591L3.60318 8.36458C2.49854 9.03323 1.12411 9.05736 0 8.43697L5.27479 11.6299C6.42078 12.3235 7.85715 12.3235 9.00314 11.6299L14.4031 8.36119C15.4806 7.70895 16.1389 6.54099 16.1389 5.28143V3.82501L15.6889 3.15002L10.739 0Z" fill="url(#paint0_radial_12089_80835)"/>
<path d="M10.739 0V2.01615C10.739 3.27571 10.0807 4.44367 9.00315 5.09591L3.60318 8.36458C2.49854 9.03323 1.12411 9.05736 0 8.43697L5.27479 11.6299C6.42078 12.3235 7.85715 12.3235 9.00314 11.6299L14.4031 8.36119C15.4806 7.70895 16.1389 6.54099 16.1389 5.28143V3.82501L15.6889 3.15002L10.739 0Z" fill="url(#paint1_linear_12089_80835)" fill-opacity="0.4"/>
</g>
<defs>
<radialGradient id="paint0_radial_12089_80835" cx="0" cy="0" r="1" gradientTransform="matrix(14.8552 2.74637 4.68914 11.0153 2.41775 7.71192)" gradientUnits="userSpaceOnUse">
<stop stop-color="#63D0FF"/>
<stop offset="0.579001" stop-color="#0684E6"/>
<stop offset="1" stop-color="#0A5FDE"/>
</radialGradient>
<linearGradient id="paint1_linear_12089_80835" x1="14.8215" y1="2.48956" x2="12.3103" y2="6.52681" gradientUnits="userSpaceOnUse">
<stop/>
<stop offset="0.1875" stop-opacity="0.6"/>
<stop offset="0.801398" stop-opacity="0"/>
</linearGradient>
</defs>
</svg>
